<svg width="100" height="100" viewBox="0 0 100 100" fill="none" xmlns="http://www.w3.org/2000/svg">
<path d="M44.8212 47.2542H45.8212V44.8445L44.115 46.5462L44.8212 47.2542ZM44.8212 62.0763H43.8212V64.486L45.5274 62.7843L44.8212 62.0763ZM85 23.0013C85.0007 22.449 84.5536 22.0007 84.0013 22L75.0013 21.9882C74.449 21.9875 74.0007 22.4346 74 22.9869C73.9993 23.5392 74.4464 23.9875 74.9987 23.9882L82.9987 23.9987L82.9882 31.9987C82.9875 32.551 83.4346 32.9993 83.9869 33C84.5392 33.0007 84.9875 32.5536 84.9882 32.0013L85 23.0013ZM16.7062 76.708L45.5274 47.9623L44.115 46.5462L15.2938 75.292L16.7062 76.708ZM43.8212 47.2542V62.0763H45.8212V47.2542H43.8212ZM45.5274 62.7843L84.7062 23.708L83.2938 22.292L44.115 61.3682L45.5274 62.7843Z" fill="#0066E0"/>
</svg>
