<svg width="100" height="100" viewBox="0 0 100 100" fill="none" xmlns="http://www.w3.org/2000/svg">
<rect x="21" y="14" width="58" height="72" stroke="#0066E0" stroke-width="2"/>
<path d="M64 60.4811L65.6603 62.295L66.0428 62.7129L66.5979 62.5996L69.0073 62.108L69.2843 64.5514L69.3482 65.1143L69.8638 65.349L72.102 66.3675L70.8899 68.5071L70.6107 69L70.8899 69.4929L72.102 71.6325L69.8638 72.651L69.3482 72.8857L69.2843 73.4486L69.0073 75.892L66.5979 75.4004L66.0428 75.2871L65.6603 75.705L64 77.5189L62.3397 75.705L61.9572 75.2871L61.4021 75.4004L58.9927 75.892L58.7157 73.4486L58.6518 72.8857L58.1362 72.651L55.898 71.6325L57.1101 69.4929L57.3893 69L57.1101 68.5071L55.898 66.3675L58.1362 65.349L58.6518 65.1143L58.7157 64.5514L58.9927 62.108L61.4021 62.5996L61.9572 62.7129L62.3397 62.295L64 60.4811Z" stroke="#0066E0" stroke-width="2"/>
</svg>
