<svg width="332" height="60" viewBox="0 0 332 60" fill="none" xmlns="http://www.w3.org/2000/svg">
<path fill-rule="evenodd" clip-rule="evenodd" d="M21.9 0L0 2.4V42L21.9 60L43.8 42V2.4L21.9 0ZM22 4L4 6.01463V39.8903L22 55L40 39.8903V6.01463L22 4Z" fill="#0066E0"/>
<path d="M25.3379 7.0127L18.7064 14.0307V41.8815L25.3379 34.8635L25.3379 7.0127Z" fill="#0066E0"/>
<path d="M26.3047 16.6338L28.23 18.7014V33.9612L26.3047 31.8936V16.6338Z" fill="#0066E0"/>
<path d="M17.5332 17.4893L15.6079 19.5568V34.8167L17.5332 32.7491V17.4893Z" fill="#0066E0"/>
<path d="M24.1641 36.9561L20.5274 40.8167V46.5824L24.1641 42.7217L24.1641 36.9561Z" fill="#0066E0"/>
<path d="M24.1641 45.085L20.5274 48.9456V50.8608L24.1641 47.0001L24.1641 45.085Z" fill="#0066E0"/>
<path d="M64.612 45L64.598 37.86L61.056 43.81H60.412L56.87 37.902V45H55.526V35.2H56.674L60.762 42.088L64.794 35.2H65.942L65.956 45H64.612ZM75.4885 41.332C75.4885 41.4347 75.4791 41.57 75.4605 41.738H69.4405C69.5245 42.3913 69.8091 42.9187 70.2945 43.32C70.7891 43.712 71.4005 43.908 72.1285 43.908C73.0151 43.908 73.7291 43.6093 74.2705 43.012L75.0125 43.88C74.6765 44.272 74.2565 44.5707 73.7525 44.776C73.2578 44.9813 72.7025 45.084 72.0865 45.084C71.3025 45.084 70.6071 44.9253 70.0005 44.608C69.3938 44.2813 68.9225 43.8287 68.5865 43.25C68.2598 42.6713 68.0965 42.018 68.0965 41.29C68.0965 40.5713 68.2551 39.9227 68.5725 39.344C68.8991 38.7653 69.3425 38.3173 69.9025 38C70.4718 37.6733 71.1111 37.51 71.8205 37.51C72.5298 37.51 73.1598 37.6733 73.7105 38C74.2705 38.3173 74.7045 38.7653 75.0125 39.344C75.3298 39.9227 75.4885 40.5853 75.4885 41.332ZM71.8205 38.644C71.1765 38.644 70.6351 38.84 70.1965 39.232C69.7671 39.624 69.5151 40.1373 69.4405 40.772H74.2005C74.1258 40.1467 73.8691 39.638 73.4305 39.246C73.0011 38.8447 72.4645 38.644 71.8205 38.644ZM84.1164 41.864H82.6744V45H81.3304V41.864H79.8884L77.8444 45H76.2484L78.7964 41.164L76.4444 37.58H77.8724L79.8744 40.716H81.3304V37.58H82.6744V40.716H84.1304L86.1324 37.58H87.5744L85.2224 41.178L87.7704 45H86.1744L84.1164 41.864ZM96.7953 43.824V46.722H95.5353V45H89.3333V46.722H88.0593V43.824H88.4513C88.9273 43.796 89.2539 43.46 89.4313 42.816C89.6086 42.172 89.7299 41.262 89.7953 40.086L89.9073 37.58H95.6613V43.824H96.7953ZM91.0273 40.184C90.9899 41.1173 90.9106 41.892 90.7893 42.508C90.6773 43.1147 90.4673 43.5533 90.1593 43.824H94.3173V38.756H91.0973L91.0273 40.184ZM105.168 37.58L101.57 45.742C101.253 46.498 100.879 47.03 100.45 47.338C100.03 47.646 99.5215 47.8 98.9241 47.8C98.5601 47.8 98.2055 47.7393 97.8601 47.618C97.5241 47.506 97.2441 47.338 97.0201 47.114L97.5941 46.106C97.9768 46.47 98.4201 46.652 98.9241 46.652C99.2508 46.652 99.5215 46.5633 99.7361 46.386C99.9601 46.218 100.161 45.924 100.338 45.504L100.576 44.986L97.3001 37.58H98.7001L101.29 43.516L103.852 37.58H105.168ZM106.544 37.58H107.888V40.73H112.116V37.58H113.46V45H112.116V41.892H107.888V45H106.544V37.58ZM118.719 37.51C119.746 37.51 120.53 37.762 121.071 38.266C121.622 38.77 121.897 39.5213 121.897 40.52V45H120.623V44.02C120.399 44.3653 120.077 44.6313 119.657 44.818C119.247 44.9953 118.757 45.084 118.187 45.084C117.357 45.084 116.689 44.8833 116.185 44.482C115.691 44.0807 115.443 43.5533 115.443 42.9C115.443 42.2467 115.681 41.724 116.157 41.332C116.633 40.9307 117.389 40.73 118.425 40.73H120.553V40.464C120.553 39.8853 120.385 39.442 120.049 39.134C119.713 38.826 119.219 38.672 118.565 38.672C118.127 38.672 117.697 38.7467 117.277 38.896C116.857 39.036 116.503 39.2273 116.213 39.47L115.653 38.462C116.036 38.154 116.493 37.9207 117.025 37.762C117.557 37.594 118.122 37.51 118.719 37.51ZM118.411 44.048C118.925 44.048 119.368 43.936 119.741 43.712C120.115 43.4787 120.385 43.152 120.553 42.732V41.696H118.481C117.343 41.696 116.773 42.0787 116.773 42.844C116.773 43.2173 116.918 43.5113 117.207 43.726C117.497 43.9407 117.898 44.048 118.411 44.048ZM128.252 37.51C128.97 37.51 129.614 37.6687 130.184 37.986C130.753 38.3033 131.196 38.7467 131.514 39.316C131.84 39.8853 132.004 40.5433 132.004 41.29C132.004 42.0367 131.84 42.6993 131.514 43.278C131.196 43.8473 130.753 44.2907 130.184 44.608C129.614 44.9253 128.97 45.084 128.252 45.084C127.72 45.084 127.23 44.9813 126.782 44.776C126.343 44.5707 125.97 44.272 125.662 43.88V47.716H124.318V37.58H125.606V38.756C125.904 38.3453 126.282 38.0373 126.74 37.832C127.197 37.6173 127.701 37.51 128.252 37.51ZM128.14 43.908C128.616 43.908 129.04 43.8007 129.414 43.586C129.796 43.362 130.095 43.054 130.31 42.662C130.534 42.2607 130.646 41.8033 130.646 41.29C130.646 40.7767 130.534 40.324 130.31 39.932C130.095 39.5307 129.796 39.2227 129.414 39.008C129.04 38.7933 128.616 38.686 128.14 38.686C127.673 38.686 127.248 38.798 126.866 39.022C126.492 39.2367 126.194 39.54 125.97 39.932C125.755 40.324 125.648 40.7767 125.648 41.29C125.648 41.8033 125.755 42.2607 125.97 42.662C126.184 43.054 126.483 43.362 126.866 43.586C127.248 43.8007 127.673 43.908 128.14 43.908ZM137.134 45.084C136.397 45.084 135.734 44.9207 135.146 44.594C134.558 44.2673 134.096 43.8193 133.76 43.25C133.434 42.6713 133.27 42.018 133.27 41.29C133.27 40.562 133.434 39.9133 133.76 39.344C134.096 38.7653 134.558 38.3173 135.146 38C135.734 37.6733 136.397 37.51 137.134 37.51C137.872 37.51 138.53 37.6733 139.108 38C139.696 38.3173 140.154 38.7653 140.48 39.344C140.816 39.9133 140.984 40.562 140.984 41.29C140.984 42.018 140.816 42.6713 140.48 43.25C140.154 43.8193 139.696 44.2673 139.108 44.594C138.53 44.9207 137.872 45.084 137.134 45.084ZM137.134 43.908C137.61 43.908 138.035 43.8007 138.408 43.586C138.791 43.362 139.09 43.054 139.304 42.662C139.519 42.2607 139.626 41.8033 139.626 41.29C139.626 40.7767 139.519 40.324 139.304 39.932C139.09 39.5307 138.791 39.2227 138.408 39.008C138.035 38.7933 137.61 38.686 137.134 38.686C136.658 38.686 136.229 38.7933 135.846 39.008C135.473 39.2227 135.174 39.5307 134.95 39.932C134.736 40.324 134.628 40.7767 134.628 41.29C134.628 41.8033 134.736 42.2607 134.95 42.662C135.174 43.054 135.473 43.362 135.846 43.586C136.229 43.8007 136.658 43.908 137.134 43.908ZM150.416 43.824V46.722H149.156V45H142.954V46.722H141.68V43.824H142.072C142.548 43.796 142.875 43.46 143.052 42.816C143.23 42.172 143.351 41.262 143.416 40.086L143.528 37.58H149.282V43.824H150.416ZM144.648 40.184C144.611 41.1173 144.532 41.892 144.41 42.508C144.298 43.1147 144.088 43.5533 143.78 43.824H147.938V38.756H144.718L144.648 40.184ZM152.167 37.58H153.511V40.73H157.739V37.58H159.083V45H157.739V41.892H153.511V45H152.167V37.58ZM164.343 37.51C165.369 37.51 166.153 37.762 166.695 38.266C167.245 38.77 167.521 39.5213 167.521 40.52V45H166.247V44.02C166.023 44.3653 165.701 44.6313 165.281 44.818C164.87 44.9953 164.38 45.084 163.811 45.084C162.98 45.084 162.313 44.8833 161.809 44.482C161.314 44.0807 161.067 43.5533 161.067 42.9C161.067 42.2467 161.305 41.724 161.781 41.332C162.257 40.9307 163.013 40.73 164.049 40.73H166.177V40.464C166.177 39.8853 166.009 39.442 165.673 39.134C165.337 38.826 164.842 38.672 164.189 38.672C163.75 38.672 163.321 38.7467 162.901 38.896C162.481 39.036 162.126 39.2273 161.837 39.47L161.277 38.462C161.659 38.154 162.117 37.9207 162.649 37.762C163.181 37.594 163.745 37.51 164.343 37.51ZM164.035 44.048C164.548 44.048 164.991 43.936 165.365 43.712C165.738 43.4787 166.009 43.152 166.177 42.732V41.696H164.105C162.966 41.696 162.397 42.0787 162.397 42.844C162.397 43.2173 162.541 43.5113 162.831 43.726C163.12 43.9407 163.521 44.048 164.035 44.048ZM175.891 37.58V45H174.687V42.648H172.531H172.377L170.753 45H169.311L171.117 42.466C170.557 42.298 170.127 42.0227 169.829 41.64C169.53 41.248 169.381 40.7627 169.381 40.184C169.381 39.3347 169.67 38.6907 170.249 38.252C170.827 37.804 171.625 37.58 172.643 37.58H175.891ZM170.753 40.226C170.753 40.7207 170.907 41.0893 171.215 41.332C171.532 41.5653 172.003 41.682 172.629 41.682H174.687V38.756H172.685C171.397 38.756 170.753 39.246 170.753 40.226ZM182.273 37.58H183.617V42.984L188.167 37.58H189.385V45H188.041V39.596L183.505 45H182.273V37.58ZM191.993 37.58H193.337V40.73H197.565V37.58H198.909V45H197.565V41.892H193.337V45H191.993V37.58ZM207.053 38.756H204.337V45H202.993V38.756H200.277V37.58H207.053V38.756ZM214.805 41.332C214.805 41.4347 214.796 41.57 214.777 41.738H208.757C208.841 42.3913 209.126 42.9187 209.611 43.32C210.106 43.712 210.717 43.908 211.445 43.908C212.332 43.908 213.046 43.6093 213.587 43.012L214.329 43.88C213.993 44.272 213.573 44.5707 213.069 44.776C212.574 44.9813 212.019 45.084 211.403 45.084C210.619 45.084 209.924 44.9253 209.317 44.608C208.71 44.2813 208.239 43.8287 207.903 43.25C207.576 42.6713 207.413 42.018 207.413 41.29C207.413 40.5713 207.572 39.9227 207.889 39.344C208.216 38.7653 208.659 38.3173 209.219 38C209.788 37.6733 210.428 37.51 211.137 37.51C211.846 37.51 212.476 37.6733 213.027 38C213.587 38.3173 214.021 38.7653 214.329 39.344C214.646 39.9227 214.805 40.5853 214.805 41.332ZM211.137 38.644C210.493 38.644 209.952 38.84 209.513 39.232C209.084 39.624 208.832 40.1373 208.757 40.772H213.517C213.442 40.1467 213.186 39.638 212.747 39.246C212.318 38.8447 211.781 38.644 211.137 38.644ZM220.824 37.51C221.543 37.51 222.187 37.6687 222.756 37.986C223.325 38.3033 223.769 38.7467 224.086 39.316C224.413 39.8853 224.576 40.5433 224.576 41.29C224.576 42.0367 224.413 42.6993 224.086 43.278C223.769 43.8473 223.325 44.2907 222.756 44.608C222.187 44.9253 221.543 45.084 220.824 45.084C220.292 45.084 219.802 44.9813 219.354 44.776C218.915 44.5707 218.542 44.272 218.234 43.88V47.716H216.89V37.58H218.178V38.756C218.477 38.3453 218.855 38.0373 219.312 37.832C219.769 37.6173 220.273 37.51 220.824 37.51ZM220.712 43.908C221.188 43.908 221.613 43.8007 221.986 43.586C222.369 43.362 222.667 43.054 222.882 42.662C223.106 42.2607 223.218 41.8033 223.218 41.29C223.218 40.7767 223.106 40.324 222.882 39.932C222.667 39.5307 222.369 39.2227 221.986 39.008C221.613 38.7933 221.188 38.686 220.712 38.686C220.245 38.686 219.821 38.798 219.438 39.022C219.065 39.2367 218.766 39.54 218.542 39.932C218.327 40.324 218.22 40.7767 218.22 41.29C218.22 41.8033 218.327 42.2607 218.542 42.662C218.757 43.054 219.055 43.362 219.438 43.586C219.821 43.8007 220.245 43.908 220.712 43.908ZM226.529 37.58H227.873V40.73H232.101V37.58H233.445V45H232.101V41.892H227.873V45H226.529V37.58ZM242.764 41.332C242.764 41.4347 242.755 41.57 242.736 41.738H236.716C236.8 42.3913 237.085 42.9187 237.57 43.32C238.065 43.712 238.676 43.908 239.404 43.908C240.291 43.908 241.005 43.6093 241.546 43.012L242.288 43.88C241.952 44.272 241.532 44.5707 241.028 44.776C240.533 44.9813 239.978 45.084 239.362 45.084C238.578 45.084 237.883 44.9253 237.276 44.608C236.669 44.2813 236.198 43.8287 235.862 43.25C235.535 42.6713 235.372 42.018 235.372 41.29C235.372 40.5713 235.531 39.9227 235.848 39.344C236.175 38.7653 236.618 38.3173 237.178 38C237.747 37.6733 238.387 37.51 239.096 37.51C239.805 37.51 240.435 37.6733 240.986 38C241.546 38.3173 241.98 38.7653 242.288 39.344C242.605 39.9227 242.764 40.5853 242.764 41.332ZM239.096 38.644C238.452 38.644 237.911 38.84 237.472 39.232C237.043 39.624 236.791 40.1373 236.716 40.772H241.476C241.401 40.1467 241.145 39.638 240.706 39.246C240.277 38.8447 239.74 38.644 239.096 38.644ZM250.379 38.756H247.663V45H246.319V38.756H243.603V37.58H250.379V38.756ZM252.739 40.576H256.505V41.738H252.739V40.576ZM262.999 37.51C264.025 37.51 264.809 37.762 265.351 38.266C265.901 38.77 266.177 39.5213 266.177 40.52V45H264.903V44.02C264.679 44.3653 264.357 44.6313 263.937 44.818C263.526 44.9953 263.036 45.084 262.467 45.084C261.636 45.084 260.969 44.8833 260.465 44.482C259.97 44.0807 259.723 43.5533 259.723 42.9C259.723 42.2467 259.961 41.724 260.437 41.332C260.913 40.9307 261.669 40.73 262.705 40.73H264.833V40.464C264.833 39.8853 264.665 39.442 264.329 39.134C263.993 38.826 263.498 38.672 262.845 38.672C262.406 38.672 261.977 38.7467 261.557 38.896C261.137 39.036 260.782 39.2273 260.493 39.47L259.933 38.462C260.315 38.154 260.773 37.9207 261.305 37.762C261.837 37.594 262.401 37.51 262.999 37.51ZM262.691 44.048C263.204 44.048 263.647 43.936 264.021 43.712C264.394 43.4787 264.665 43.152 264.833 42.732V41.696H262.761C261.622 41.696 261.053 42.0787 261.053 42.844C261.053 43.2173 261.197 43.5113 261.487 43.726C261.776 43.9407 262.177 44.048 262.691 44.048ZM271.481 41.864H269.941V45H268.597V37.58H269.941V40.716H271.509L273.917 37.58H275.359L272.545 41.15L275.555 45H273.973L271.481 41.864ZM279.473 37.51C280.5 37.51 281.284 37.762 281.825 38.266C282.376 38.77 282.651 39.5213 282.651 40.52V45H281.377V44.02C281.153 44.3653 280.831 44.6313 280.411 44.818C280.001 44.9953 279.511 45.084 278.941 45.084C278.111 45.084 277.443 44.8833 276.939 44.482C276.445 44.0807 276.197 43.5533 276.197 42.9C276.197 42.2467 276.435 41.724 276.911 41.332C277.387 40.9307 278.143 40.73 279.179 40.73H281.307V40.464C281.307 39.8853 281.139 39.442 280.803 39.134C280.467 38.826 279.973 38.672 279.319 38.672C278.881 38.672 278.451 38.7467 278.031 38.896C277.611 39.036 277.257 39.2273 276.967 39.47L276.407 38.462C276.79 38.154 277.247 37.9207 277.779 37.762C278.311 37.594 278.876 37.51 279.473 37.51ZM279.165 44.048C279.679 44.048 280.122 43.936 280.495 43.712C280.869 43.4787 281.139 43.152 281.307 42.732V41.696H279.235C278.097 41.696 277.527 42.0787 277.527 42.844C277.527 43.2173 277.672 43.5113 277.961 43.726C278.251 43.9407 278.652 44.048 279.165 44.048ZM292.618 43.824V46.722H291.358V45H285.156V46.722H283.882V43.824H284.274C284.75 43.796 285.076 43.46 285.254 42.816C285.431 42.172 285.552 41.262 285.618 40.086L285.73 37.58H291.484V43.824H292.618ZM286.85 40.184C286.812 41.1173 286.733 41.892 286.612 42.508C286.5 43.1147 286.29 43.5533 285.982 43.824H290.14V38.756H286.92L286.85 40.184ZM301.074 41.332C301.074 41.4347 301.065 41.57 301.046 41.738H295.026C295.11 42.3913 295.395 42.9187 295.88 43.32C296.375 43.712 296.986 43.908 297.714 43.908C298.601 43.908 299.315 43.6093 299.856 43.012L300.598 43.88C300.262 44.272 299.842 44.5707 299.338 44.776C298.844 44.9813 298.288 45.084 297.672 45.084C296.888 45.084 296.193 44.9253 295.586 44.608C294.98 44.2813 294.508 43.8287 294.172 43.25C293.846 42.6713 293.682 42.018 293.682 41.29C293.682 40.5713 293.841 39.9227 294.158 39.344C294.485 38.7653 294.928 38.3173 295.488 38C296.058 37.6733 296.697 37.51 297.406 37.51C298.116 37.51 298.746 37.6733 299.296 38C299.856 38.3173 300.29 38.7653 300.598 39.344C300.916 39.9227 301.074 40.5853 301.074 41.332ZM297.406 38.644C296.762 38.644 296.221 38.84 295.782 39.232C295.353 39.624 295.101 40.1373 295.026 40.772H299.786C299.712 40.1467 299.455 39.638 299.016 39.246C298.587 38.8447 298.05 38.644 297.406 38.644ZM311.713 37.58V45H310.495V39.582L307.723 44.16H307.135L304.391 39.568V45H303.159V37.58H304.545L307.457 42.592L310.453 37.58H311.713ZM314.329 37.58H315.673V42.984L320.223 37.58H321.441V45H320.097V39.596L315.561 45H314.329V37.58ZM330 37.58V45H328.796V42.648H326.64H326.486L324.862 45H323.42L325.226 42.466C324.666 42.298 324.237 42.0227 323.938 41.64C323.639 41.248 323.49 40.7627 323.49 40.184C323.49 39.3347 323.779 38.6907 324.358 38.252C324.937 37.804 325.735 37.58 326.752 37.58H330ZM324.862 40.226C324.862 40.7207 325.016 41.0893 325.324 41.332C325.641 41.5653 326.113 41.682 326.738 41.682H328.796V38.756H326.794C325.506 38.756 324.862 39.246 324.862 40.226Z" fill="black"/>
<path d="M67.2318 19.112H58.8318L57.1758 23H53.9598L61.5198 6.2H64.5918L72.1758 23H68.9118L67.2318 19.112ZM66.1998 16.664L63.0318 9.32L59.8878 16.664H66.1998ZM83.294 23.24C81.598 23.24 80.062 22.872 78.686 22.136C77.326 21.384 76.254 20.352 75.47 19.04C74.702 17.728 74.318 16.248 74.318 14.6C74.318 12.952 74.71 11.472 75.494 10.16C76.278 8.848 77.35 7.824 78.71 7.088C80.086 6.336 81.622 5.96 83.318 5.96C84.694 5.96 85.95 6.2 87.086 6.68C88.222 7.16 89.182 7.856 89.966 8.768L87.95 10.664C86.734 9.352 85.238 8.696 83.462 8.696C82.31 8.696 81.278 8.952 80.366 9.464C79.454 9.96 78.742 10.656 78.23 11.552C77.718 12.448 77.462 13.464 77.462 14.6C77.462 15.736 77.718 16.752 78.23 17.648C78.742 18.544 79.454 19.248 80.366 19.76C81.278 20.256 82.31 20.504 83.462 20.504C85.238 20.504 86.734 19.84 87.95 18.512L89.966 20.432C89.182 21.344 88.214 22.04 87.062 22.52C85.926 23 84.67 23.24 83.294 23.24ZM104.94 19.112H96.54L94.884 23H91.668L99.228 6.2H102.3L109.884 23H106.62L104.94 19.112ZM103.908 16.664L100.74 9.32L97.596 16.664H103.908ZM113.461 6.2H120.805C122.597 6.2 124.189 6.552 125.581 7.256C126.973 7.944 128.053 8.928 128.821 10.208C129.589 11.472 129.973 12.936 129.973 14.6C129.973 16.264 129.589 17.736 128.821 19.016C128.053 20.28 126.973 21.264 125.581 21.968C124.189 22.656 122.597 23 120.805 23H113.461V6.2ZM120.661 20.36C121.893 20.36 122.973 20.128 123.901 19.664C124.845 19.184 125.565 18.512 126.061 17.648C126.573 16.768 126.829 15.752 126.829 14.6C126.829 13.448 126.573 12.44 126.061 11.576C125.565 10.696 124.845 10.024 123.901 9.56C122.973 9.08 121.893 8.84 120.661 8.84H116.581V20.36H120.661ZM147.329 20.384V23H134.729V6.2H146.993V8.816H137.849V13.184H145.961V15.752H137.849V20.384H147.329ZM167.679 23L167.655 11.864L162.135 21.08H160.743L155.223 12.008V23H152.247V6.2H154.815L161.487 17.336L168.039 6.2H170.607L170.631 23H167.679ZM187.169 20.072H180.785L179.657 23H173.897L181.241 6.2H186.809L194.153 23H188.297L187.169 20.072ZM185.609 15.992L183.977 11.768L182.345 15.992H185.609ZM199.301 10.592H194.381V6.2H209.885V10.592H204.965V23H199.301V10.592ZM223.4 20.072H217.016L215.888 23H210.128L217.472 6.2H223.04L230.384 23H224.528L223.4 20.072ZM221.84 15.992L220.208 11.768L218.576 15.992H221.84Z" fill="black"/>
</svg>
