<svg width="829" height="334" viewBox="0 0 829 334" fill="none" xmlns="http://www.w3.org/2000/svg">
<path opacity="0.3" fill-rule="evenodd" clip-rule="evenodd" d="M230.663 143.964C238.018 133.796 242.352 121.3 242.352 107.792C242.352 73.665 214.687 46 180.56 46C150.968 46 126.234 66.8019 120.184 94.5806C111.665 85.8952 99.7957 80.507 86.6682 80.507C60.7409 80.507 39.7226 101.525 39.7226 127.453C39.7226 132.939 40.6639 138.206 42.3939 143.101H37.918C18.5279 143.101 2.80916 158.82 2.80916 178.21C2.80916 197.6 18.5279 213.319 37.918 213.319H222.892C242.282 213.319 258 197.6 258 178.21C258 161.49 246.314 147.501 230.663 143.964ZM36.112 80.5071C36.112 90.4792 28.028 98.5631 18.056 98.5631C8.08394 98.5631 0 90.4792 0 80.5071C0 70.5351 8.08394 62.4511 18.056 62.4511C28.028 62.4511 36.112 70.5351 36.112 80.5071Z" fill="white"/>
<path opacity="0.3" fill-rule="evenodd" clip-rule="evenodd" d="M784.083 92.1608C784.083 97.2201 788.184 101.322 793.243 101.322C798.303 101.322 802.404 97.2201 802.404 92.1608C802.404 87.1014 798.303 83 793.243 83C788.184 83 784.083 87.1014 784.083 92.1608ZM618.851 184.655C618.684 183.003 618.598 181.327 618.598 179.631C618.598 152.376 640.693 130.281 667.948 130.281C680.637 130.281 692.208 135.07 700.951 142.94C704.957 121.603 723.686 105.459 746.186 105.459C771.607 105.459 792.214 126.066 792.214 151.486C792.214 164.516 786.8 176.281 778.098 184.655H805.95C818.68 184.655 829 194.975 829 207.704C829 220.434 818.68 230.754 805.95 230.754H602.05C589.32 230.754 579 220.434 579 207.704C579 194.975 589.32 184.655 602.05 184.655H618.851Z" fill="white"/>
</svg>
