<svg width="1440" height="617" viewBox="0 0 1440 617" fill="none" xmlns="http://www.w3.org/2000/svg">
<g filter="url(#filter0_d)">
<path fill-rule="evenodd" clip-rule="evenodd" d="M719.936 177L620 187.952V368.658L719.936 450.797L819.872 368.658V187.952L719.936 177ZM719.936 190.428L633.69 199.956V360.17L719.936 431.631L806.182 360.17V199.956L719.936 190.428Z" fill="#41A4FF"/>
<path d="M735.156 208L704.895 240.025V367.116L735.156 335.091V208Z" fill="#41A4FF"/>
<path d="M740.037 252.904L748.823 262.339V331.974L740.037 322.539V252.904Z" fill="#41A4FF"/>
<path d="M700.014 256.809L691.228 266.244V335.879L700.014 326.444V256.809Z" fill="#41A4FF"/>
<path d="M730.275 345.641L713.68 363.258V389.568L730.275 371.951V345.641Z" fill="#41A4FF"/>
<path d="M730.275 382.735L713.68 400.353V409.092L730.275 391.475V382.735Z" fill="#41A4FF"/>
</g>
<g opacity="0.2">
<mask id="mask0" mask-type="alpha" maskUnits="userSpaceOnUse" x="0" y="0" width="1440" height="617">
<path fill-rule="evenodd" clip-rule="evenodd" d="M1440 0H0V617H1440V0ZM719.936 177L620 187.952V368.658L719.936 450.797L819.872 368.658V187.952L719.936 177Z" fill="#C4C4C4"/>
</mask>
<g mask="url(#mask0)">
<path d="M445.162 299.587L495.611 350.036H769.83L719.381 299.587H445.162Z" fill="#46A6FF"/>
<path d="M371.002 299.587L421.451 350.036H471.9L421.451 299.587H371.002Z" fill="#46A6FF"/>
<path d="M327.615 299.588L378.064 350.037H398.244L347.795 299.588H327.615Z" fill="#46A6FF"/>
<path d="M743.904 311L770.487 337.738H1020.36L993.781 311H743.904Z" fill="#A3D3FF"/>
<path d="M1103 270L1155.99 324H1458L1405.01 270L1103 270Z" fill="#46A6FF"/>
<path d="M326.102 362.144L353.509 389.89H742.304L714.897 362.144H326.102Z" fill="#2C74C9"/>
<path d="M163.154 255.192L195.046 287.48H591.969L560.077 255.192H163.154Z" fill="#60A9FF"/>
<path d="M638.885 265.282L660.678 287.48H1095.95L1074.16 265.282H638.885Z" fill="#6CC1FF"/>
<path d="M730.197 362.144L791.512 423.691H1105.54L1044.22 362.144H730.197Z" fill="#0A51A5"/>
<path opacity="0.3" d="M-411.096 270L-358.109 324H203.904L150.918 270L-411.096 270Z" fill="#46A6FF"/>
<path d="M1023.9 313L1135.04 425H1839.9L1728.77 313H1023.9Z" fill="#B8DDFF"/>
</g>
</g>
<defs>
<filter id="filter0_d" x="614" y="175" width="211.872" height="285.797" filterUnits="userSpaceOnUse" color-interpolation-filters="sRGB">
<feFlood flood-opacity="0" result="BackgroundImageFix"/>
<feColorMatrix in="SourceAlpha" type="matrix" values="0 0 0 0 0 0 0 0 0 0 0 0 0 0 0 0 0 0 127 0"/>
<feOffset dy="4"/>
<feGaussianBlur stdDeviation="3"/>
<feColorMatrix type="matrix" values="0 0 0 0 0 0 0 0 0 0 0 0 0 0 0 0 0 0 0.25 0"/>
<feBlend mode="normal" in2="BackgroundImageFix" result="effect1_dropShadow"/>
<feBlend mode="normal" in="SourceGraphic" in2="effect1_dropShadow" result="shape"/>
</filter>
</defs>
</svg>
