<svg width="1440" height="800" viewBox="0 0 1440 800" fill="none" xmlns="http://www.w3.org/2000/svg">
<circle r="4.92037" transform="matrix(-4.37114e-08 1 1 4.37114e-08 242.028 682.455)" fill="white"/>
<circle cx="203.157" cy="448.738" r="2.46019" transform="rotate(-90 203.157 448.738)" fill="white"/>
<circle cx="327.152" cy="558.954" r="2.46019" transform="rotate(-90 327.152 558.954)" fill="white"/>
<circle cx="304.517" cy="396.581" r="2.46019" transform="rotate(-90 304.517 396.581)" fill="white"/>
<circle cx="402.927" cy="702.629" r="2.46019" transform="rotate(-90 402.927 702.629)" fill="white"/>
<circle r="4.92037" transform="matrix(0.965926 0.258819 0.258819 -0.965926 324.022 183.858)" fill="white"/>
<circle r="4.92037" transform="matrix(0.965926 0.258819 0.258819 -0.965926 18.5223 505.936)" fill="white"/>
<circle cx="64.3385" cy="83.2144" r="2.46019" transform="rotate(-165 64.3385 83.2144)" fill="white"/>
<circle cx="226.223" cy="69.4381" r="2.46019" transform="rotate(-165 226.223 69.4381)" fill="white"/>
<circle cx="223.229" cy="3.01327" r="2.46019" transform="rotate(-165 223.229 3.01327)" fill="white"/>
<circle cx="385.153" cy="33.6656" r="2.46019" transform="rotate(-165 385.153 33.6656)" fill="white"/>
<g opacity="0.1">
<circle r="4.92037" transform="matrix(1.31134e-07 -1 -1 -1.31134e-07 163.359 116.614)" fill="white"/>
<circle cx="202.229" cy="350.33" r="2.46019" transform="rotate(90 202.229 350.33)" fill="white"/>
<circle cx="78.2351" cy="240.114" r="2.46019" transform="rotate(90 78.2351 240.114)" fill="white"/>
<circle cx="14.7605" cy="260.78" r="2.46019" transform="rotate(90 14.7605 260.78)" fill="white"/>
<circle cx="2.45974" cy="96.4397" r="2.46019" transform="rotate(90 2.45974 96.4397)" fill="white"/>
<circle r="4.92037" transform="matrix(-0.965926 -0.258819 -0.258819 0.965926 81.3644 615.211)" fill="white"/>
<circle r="4.92037" transform="matrix(-0.965926 -0.258819 -0.258819 0.965926 386.864 293.133)" fill="white"/>
<circle cx="317.179" cy="638.155" r="2.46019" transform="rotate(15 317.179 638.155)" fill="white"/>
<circle cx="179.163" cy="729.63" r="2.46019" transform="rotate(15 179.163 729.63)" fill="white"/>
<circle cx="182.158" cy="796.055" r="2.46019" transform="rotate(15 182.158 796.055)" fill="white"/>
<circle cx="20.2338" cy="765.403" r="2.46019" transform="rotate(15 20.2338 765.403)" fill="white"/>
</g>
<circle r="4.92037" transform="matrix(-4.37114e-08 1 1 4.37114e-08 759.332 682.455)" fill="white"/>
<circle cx="720.462" cy="448.738" r="2.46019" transform="rotate(-90 720.462 448.738)" fill="white"/>
<circle cx="844.456" cy="558.954" r="2.46019" transform="rotate(-90 844.456 558.954)" fill="white"/>
<circle cx="821.822" cy="396.581" r="2.46019" transform="rotate(-90 821.822 396.581)" fill="white"/>
<circle cx="920.232" cy="702.629" r="2.46019" transform="rotate(-90 920.232 702.629)" fill="white"/>
<circle r="4.92037" transform="matrix(0.965926 0.258819 0.258819 -0.965926 841.327 183.858)" fill="white"/>
<circle r="4.92037" transform="matrix(0.965926 0.258819 0.258819 -0.965926 535.827 505.936)" fill="white"/>
<circle cx="581.643" cy="83.2144" r="2.46019" transform="rotate(-165 581.643 83.2144)" fill="white"/>
<circle cx="743.528" cy="69.4381" r="2.46019" transform="rotate(-165 743.528 69.4381)" fill="white"/>
<circle cx="740.534" cy="3.01327" r="2.46019" transform="rotate(-165 740.534 3.01327)" fill="white"/>
<circle cx="902.458" cy="33.6656" r="2.46019" transform="rotate(-165 902.458 33.6656)" fill="white"/>
<g opacity="0.1">
<circle r="4.92037" transform="matrix(1.31134e-07 -1 -1 -1.31134e-07 680.662 116.613)" fill="white"/>
<circle cx="719.532" cy="350.329" r="2.46019" transform="rotate(90 719.532 350.329)" fill="white"/>
<circle cx="595.538" cy="240.114" r="2.46019" transform="rotate(90 595.538 240.114)" fill="white"/>
<circle cx="532.063" cy="260.779" r="2.46019" transform="rotate(90 532.063 260.779)" fill="white"/>
<circle cx="519.762" cy="96.4387" r="2.46019" transform="rotate(90 519.762 96.4387)" fill="white"/>
<circle r="4.92037" transform="matrix(-0.965926 -0.258819 -0.258819 0.965926 598.667 615.21)" fill="white"/>
<circle r="4.92037" transform="matrix(-0.965926 -0.258819 -0.258819 0.965926 904.167 293.132)" fill="white"/>
<circle cx="834.482" cy="638.154" r="2.46019" transform="rotate(15 834.482 638.154)" fill="white"/>
<circle cx="696.466" cy="729.629" r="2.46019" transform="rotate(15 696.466 729.629)" fill="white"/>
<circle cx="699.46" cy="796.054" r="2.46019" transform="rotate(15 699.46 796.054)" fill="white"/>
<circle cx="537.536" cy="765.402" r="2.46019" transform="rotate(15 537.536 765.402)" fill="white"/>
</g>
<circle r="4.92037" transform="matrix(-4.37114e-08 1 1 4.37114e-08 1276.64 682.455)" fill="white"/>
<circle cx="1237.77" cy="448.738" r="2.46019" transform="rotate(-90 1237.77 448.738)" fill="white"/>
<circle cx="1361.76" cy="558.954" r="2.46019" transform="rotate(-90 1361.76 558.954)" fill="white"/>
<circle cx="1339.13" cy="396.581" r="2.46019" transform="rotate(-90 1339.13 396.581)" fill="white"/>
<circle cx="1437.54" cy="702.629" r="2.46019" transform="rotate(-90 1437.54 702.629)" fill="white"/>
<circle r="4.92037" transform="matrix(0.965926 0.258819 0.258819 -0.965926 1358.64 183.858)" fill="white"/>
<circle r="4.92037" transform="matrix(0.965926 0.258819 0.258819 -0.965926 1053.14 505.936)" fill="white"/>
<circle cx="1098.95" cy="83.2144" r="2.46019" transform="rotate(-165 1098.95 83.2144)" fill="white"/>
<circle cx="1260.84" cy="69.4381" r="2.46019" transform="rotate(-165 1260.84 69.4381)" fill="white"/>
<circle cx="1257.84" cy="3.01327" r="2.46019" transform="rotate(-165 1257.84 3.01327)" fill="white"/>
<circle cx="1419.77" cy="33.6656" r="2.46019" transform="rotate(-165 1419.77 33.6656)" fill="white"/>
<g opacity="0.1">
<circle r="4.92037" transform="matrix(1.31134e-07 -1 -1 -1.31134e-07 1197.97 116.614)" fill="white"/>
<circle cx="1236.84" cy="350.33" r="2.46019" transform="rotate(90 1236.84 350.33)" fill="white"/>
<circle cx="1112.85" cy="240.114" r="2.46019" transform="rotate(90 1112.85 240.114)" fill="white"/>
<circle cx="1049.37" cy="260.78" r="2.46019" transform="rotate(90 1049.37 260.78)" fill="white"/>
<circle cx="1037.07" cy="96.4397" r="2.46019" transform="rotate(90 1037.07 96.4397)" fill="white"/>
<circle r="4.92037" transform="matrix(-0.965926 -0.258819 -0.258819 0.965926 1115.98 615.211)" fill="white"/>
<circle r="4.92037" transform="matrix(-0.965926 -0.258819 -0.258819 0.965926 1421.48 293.133)" fill="white"/>
<circle cx="1351.79" cy="638.155" r="2.46019" transform="rotate(15 1351.79 638.155)" fill="white"/>
<circle cx="1213.78" cy="729.63" r="2.46019" transform="rotate(15 1213.78 729.63)" fill="white"/>
<circle cx="1216.77" cy="796.055" r="2.46019" transform="rotate(15 1216.77 796.055)" fill="white"/>
<circle cx="1054.85" cy="765.403" r="2.46019" transform="rotate(15 1054.85 765.403)" fill="white"/>
</g>
</svg>
