<svg width="1440" height="334" viewBox="0 0 1440 334" fill="none" xmlns="http://www.w3.org/2000/svg">
<path opacity="0.3" fill-rule="evenodd" clip-rule="evenodd" d="M323.663 143.964C331.018 133.796 335.352 121.3 335.352 107.792C335.352 73.665 307.687 46 273.56 46C243.968 46 219.234 66.8019 213.184 94.5806C204.665 85.8952 192.796 80.507 179.668 80.507C153.741 80.507 132.723 101.525 132.723 127.453C132.723 132.939 133.664 138.206 135.394 143.101H130.918C111.528 143.101 95.8092 158.82 95.8092 178.21C95.8092 197.6 111.528 213.319 130.918 213.319H315.892C335.282 213.319 351 197.6 351 178.21C351 161.49 339.314 147.501 323.663 143.964ZM129.112 80.5071C129.112 90.4792 121.028 98.5631 111.056 98.5631C101.084 98.5631 93 90.4792 93 80.5071C93 70.5351 101.084 62.4511 111.056 62.4511C121.028 62.4511 129.112 70.5351 129.112 80.5071Z" fill="white"/>
<path opacity="0.3" fill-rule="evenodd" clip-rule="evenodd" d="M1281.08 92.1608C1281.08 97.2201 1285.18 101.322 1290.24 101.322C1295.3 101.322 1299.4 97.2201 1299.4 92.1608C1299.4 87.1014 1295.3 83 1290.24 83C1285.18 83 1281.08 87.1014 1281.08 92.1608ZM1115.85 184.655C1115.68 183.003 1115.6 181.327 1115.6 179.631C1115.6 152.376 1137.69 130.281 1164.95 130.281C1177.64 130.281 1189.21 135.07 1197.95 142.94C1201.96 121.603 1220.69 105.459 1243.19 105.459C1268.61 105.459 1289.21 126.066 1289.21 151.486C1289.21 164.516 1283.8 176.281 1275.1 184.655H1302.95C1315.68 184.655 1326 194.975 1326 207.704C1326 220.434 1315.68 230.754 1302.95 230.754H1099.05C1086.32 230.754 1076 220.434 1076 207.704C1076 194.975 1086.32 184.655 1099.05 184.655H1115.85Z" fill="white"/>
</svg>
