<svg width="331" height="60" viewBox="0 0 331 60" fill="none" xmlns="http://www.w3.org/2000/svg">
<path fill-rule="evenodd" clip-rule="evenodd" d="M21.9 0L0 2.4V42L21.9 60L43.8 42V2.4L21.9 0ZM22 4L4 6.01463V39.8903L22 55L40 39.8903V6.01463L22 4Z" fill="#0066E0"/>
<path d="M25.3398 7.0127L18.7084 14.0307V41.8815L25.3398 34.8635L25.3398 7.0127Z" fill="#0066E0"/>
<path d="M26.3047 16.6338L28.23 18.7014V33.9612L26.3047 31.8936V16.6338Z" fill="#0066E0"/>
<path d="M17.5352 17.4895L15.6099 19.5571V34.8169L17.5352 32.7494V17.4895Z" fill="#0066E0"/>
<path d="M24.1641 36.9563L20.5274 40.817V46.5827L24.1641 42.722L24.1641 36.9563Z" fill="#0066E0"/>
<path d="M24.1641 45.085L20.5274 48.9456V50.8608L24.1641 47.0001L24.1641 45.085Z" fill="#0066E0"/>
<path d="M64.6133 45L64.5993 37.86L61.0573 43.81H60.4133L56.8713 37.902V45H55.5273V35.2H56.6753L60.7633 42.088L64.7953 35.2H65.9433L65.9573 45H64.6133Z" fill="white"/>
<path d="M75.4898 41.332C75.4898 41.4346 75.4805 41.57 75.4618 41.738H69.4418C69.5258 42.3913 69.8105 42.9186 70.2958 43.32C70.7905 43.712 71.4018 43.908 72.1298 43.908C73.0165 43.908 73.7305 43.6093 74.2718 43.012L75.0138 43.88C74.6778 44.272 74.2578 44.5706 73.7538 44.776C73.2591 44.9813 72.7038 45.084 72.0878 45.084C71.3038 45.084 70.6085 44.9253 70.0018 44.608C69.3951 44.2813 68.9238 43.8286 68.5878 43.25C68.2611 42.6713 68.0978 42.018 68.0978 41.29C68.0978 40.5713 68.2565 39.9226 68.5738 39.344C68.9005 38.7653 69.3438 38.3173 69.9038 38C70.4731 37.6733 71.1125 37.51 71.8218 37.51C72.5311 37.51 73.1611 37.6733 73.7118 38C74.2718 38.3173 74.7058 38.7653 75.0138 39.344C75.3311 39.9226 75.4898 40.5853 75.4898 41.332ZM71.8218 38.644C71.1778 38.644 70.6365 38.84 70.1978 39.232C69.7685 39.624 69.5165 40.1373 69.4418 40.772H74.2018C74.1271 40.1466 73.8705 39.638 73.4318 39.246C73.0025 38.8446 72.4658 38.644 71.8218 38.644Z" fill="white"/>
<path d="M84.1178 41.864H82.6758V45H81.3318V41.864H79.8897L77.8458 45H76.2498L78.7978 41.164L76.4457 37.58H77.8738L79.8757 40.716H81.3318V37.58H82.6758V40.716H84.1318L86.1338 37.58H87.5757L85.2238 41.178L87.7718 45H86.1758L84.1178 41.864Z" fill="white"/>
<path d="M96.7966 43.824V46.722H95.5366V45H89.3346V46.722H88.0606V43.824H88.4526C88.9286 43.796 89.2553 43.46 89.4326 42.816C89.6099 42.172 89.7313 41.262 89.7966 40.086L89.9086 37.58H95.6626V43.824H96.7966ZM91.0286 40.184C90.9913 41.1173 90.9119 41.892 90.7906 42.508C90.6786 43.1146 90.4686 43.5533 90.1606 43.824H94.3186V38.756H91.0986L91.0286 40.184Z" fill="white"/>
<path d="M105.169 37.58L101.571 45.742C101.254 46.498 100.881 47.03 100.451 47.338C100.031 47.646 99.5228 47.8 98.9255 47.8C98.5615 47.8 98.2068 47.7393 97.8615 47.618C97.5255 47.506 97.2455 47.338 97.0215 47.114L97.5955 46.106C97.9782 46.47 98.4215 46.652 98.9255 46.652C99.2522 46.652 99.5228 46.5633 99.7375 46.386C99.9615 46.218 100.162 45.924 100.339 45.504L100.577 44.986L97.3015 37.58H98.7015L101.291 43.516L103.853 37.58H105.169Z" fill="white"/>
<path d="M106.546 37.58H107.89V40.73H112.118V37.58H113.462V45H112.118V41.892H107.89V45H106.546V37.58Z" fill="white"/>
<path d="M118.721 37.51C119.747 37.51 120.531 37.762 121.073 38.266C121.623 38.77 121.899 39.5213 121.899 40.52V45H120.625V44.02C120.401 44.3653 120.079 44.6313 119.659 44.818C119.248 44.9953 118.758 45.084 118.189 45.084C117.358 45.084 116.691 44.8833 116.187 44.482C115.692 44.0806 115.445 43.5533 115.445 42.9C115.445 42.2466 115.683 41.724 116.159 41.332C116.635 40.9306 117.391 40.73 118.427 40.73H120.555V40.464C120.555 39.8853 120.387 39.442 120.051 39.134C119.715 38.826 119.22 38.672 118.567 38.672C118.128 38.672 117.699 38.7466 117.279 38.896C116.859 39.036 116.504 39.2273 116.215 39.47L115.655 38.462C116.037 38.154 116.495 37.9206 117.027 37.762C117.559 37.594 118.123 37.51 118.721 37.51ZM118.413 44.048C118.926 44.048 119.369 43.936 119.743 43.712C120.116 43.4786 120.387 43.152 120.555 42.732V41.696H118.483C117.344 41.696 116.775 42.0786 116.775 42.844C116.775 43.2173 116.919 43.5113 117.209 43.726C117.498 43.9406 117.899 44.048 118.413 44.048Z" fill="white"/>
<path d="M128.253 37.51C128.972 37.51 129.616 37.6686 130.185 37.986C130.754 38.3033 131.198 38.7466 131.515 39.316C131.842 39.8853 132.005 40.5433 132.005 41.29C132.005 42.0366 131.842 42.6993 131.515 43.278C131.198 43.8473 130.754 44.2906 130.185 44.608C129.616 44.9253 128.972 45.084 128.253 45.084C127.721 45.084 127.231 44.9813 126.783 44.776C126.344 44.5706 125.971 44.272 125.663 43.88V47.716H124.319V37.58H125.607V38.756C125.906 38.3453 126.284 38.0373 126.741 37.832C127.198 37.6173 127.702 37.51 128.253 37.51ZM128.141 43.908C128.617 43.908 129.042 43.8006 129.415 43.586C129.798 43.362 130.096 43.054 130.311 42.662C130.535 42.2606 130.647 41.8033 130.647 41.29C130.647 40.7766 130.535 40.324 130.311 39.932C130.096 39.5306 129.798 39.2226 129.415 39.008C129.042 38.7933 128.617 38.686 128.141 38.686C127.674 38.686 127.25 38.798 126.867 39.022C126.494 39.2366 126.195 39.54 125.971 39.932C125.756 40.324 125.649 40.7766 125.649 41.29C125.649 41.8033 125.756 42.2606 125.971 42.662C126.186 43.054 126.484 43.362 126.867 43.586C127.25 43.8006 127.674 43.908 128.141 43.908Z" fill="white"/>
<path d="M137.136 45.084C136.398 45.084 135.736 44.9206 135.148 44.594C134.56 44.2673 134.098 43.8193 133.762 43.25C133.435 42.6713 133.272 42.018 133.272 41.29C133.272 40.562 133.435 39.9133 133.762 39.344C134.098 38.7653 134.56 38.3173 135.148 38C135.736 37.6733 136.398 37.51 137.136 37.51C137.873 37.51 138.531 37.6733 139.11 38C139.698 38.3173 140.155 38.7653 140.482 39.344C140.818 39.9133 140.986 40.562 140.986 41.29C140.986 42.018 140.818 42.6713 140.482 43.25C140.155 43.8193 139.698 44.2673 139.11 44.594C138.531 44.9206 137.873 45.084 137.136 45.084ZM137.136 43.908C137.612 43.908 138.036 43.8006 138.41 43.586C138.792 43.362 139.091 43.054 139.306 42.662C139.52 42.2606 139.628 41.8033 139.628 41.29C139.628 40.7766 139.52 40.324 139.306 39.932C139.091 39.5306 138.792 39.2226 138.41 39.008C138.036 38.7933 137.612 38.686 137.136 38.686C136.66 38.686 136.23 38.7933 135.848 39.008C135.474 39.2226 135.176 39.5306 134.952 39.932C134.737 40.324 134.63 40.7766 134.63 41.29C134.63 41.8033 134.737 42.2606 134.952 42.662C135.176 43.054 135.474 43.362 135.848 43.586C136.23 43.8006 136.66 43.908 137.136 43.908Z" fill="white"/>
<path d="M150.418 43.824V46.722H149.158V45H142.956V46.722H141.682V43.824H142.074C142.55 43.796 142.876 43.46 143.054 42.816C143.231 42.172 143.352 41.262 143.418 40.086L143.53 37.58H149.284V43.824H150.418ZM144.65 40.184C144.612 41.1173 144.533 41.892 144.412 42.508C144.3 43.1146 144.09 43.5533 143.782 43.824H147.94V38.756H144.72L144.65 40.184Z" fill="white"/>
<path d="M152.169 37.58H153.513V40.73H157.741V37.58H159.085V45H157.741V41.892H153.513V45H152.169V37.58Z" fill="white"/>
<path d="M164.344 37.51C165.371 37.51 166.155 37.762 166.696 38.266C167.247 38.77 167.522 39.5213 167.522 40.52V45H166.248V44.02C166.024 44.3653 165.702 44.6313 165.282 44.818C164.871 44.9953 164.381 45.084 163.812 45.084C162.981 45.084 162.314 44.8833 161.81 44.482C161.315 44.0806 161.068 43.5533 161.068 42.9C161.068 42.2466 161.306 41.724 161.782 41.332C162.258 40.9306 163.014 40.73 164.05 40.73H166.178V40.464C166.178 39.8853 166.01 39.442 165.674 39.134C165.338 38.826 164.843 38.672 164.19 38.672C163.751 38.672 163.322 38.7466 162.902 38.896C162.482 39.036 162.127 39.2273 161.838 39.47L161.278 38.462C161.661 38.154 162.118 37.9206 162.65 37.762C163.182 37.594 163.747 37.51 164.344 37.51ZM164.036 44.048C164.549 44.048 164.993 43.936 165.366 43.712C165.739 43.4786 166.01 43.152 166.178 42.732V41.696H164.106C162.967 41.696 162.398 42.0786 162.398 42.844C162.398 43.2173 162.543 43.5113 162.832 43.726C163.121 43.9406 163.523 44.048 164.036 44.048Z" fill="white"/>
<path d="M175.892 37.58V45H174.688V42.648H172.378L170.754 45H169.312L171.118 42.466C170.558 42.298 170.129 42.0226 169.83 41.64C169.531 41.248 169.382 40.7626 169.382 40.184C169.382 39.3346 169.671 38.6906 170.25 38.252C170.829 37.804 171.627 37.58 172.644 37.58H175.892ZM170.754 40.226C170.754 40.7206 170.908 41.0893 171.216 41.332C171.533 41.5653 172.005 41.682 172.63 41.682H174.688V38.756H172.686C171.398 38.756 170.754 39.246 170.754 40.226Z" fill="white"/>
<path d="M182.274 37.58H183.618V42.984L188.168 37.58H189.386V45H188.042V39.596L183.506 45H182.274V37.58Z" fill="white"/>
<path d="M191.995 37.58H193.339V40.73H197.567V37.58H198.911V45H197.567V41.892H193.339V45H191.995V37.58Z" fill="white"/>
<path d="M207.054 38.756H204.338V45H202.994V38.756H200.278V37.58H207.054V38.756Z" fill="white"/>
<path d="M214.806 41.332C214.806 41.4346 214.797 41.57 214.778 41.738H208.758C208.842 42.3913 209.127 42.9186 209.612 43.32C210.107 43.712 210.718 43.908 211.446 43.908C212.333 43.908 213.047 43.6093 213.588 43.012L214.33 43.88C213.994 44.272 213.574 44.5706 213.07 44.776C212.576 44.9813 212.02 45.084 211.404 45.084C210.62 45.084 209.925 44.9253 209.318 44.608C208.712 44.2813 208.24 43.8286 207.904 43.25C207.578 42.6713 207.414 42.018 207.414 41.29C207.414 40.5713 207.573 39.9226 207.89 39.344C208.217 38.7653 208.66 38.3173 209.22 38C209.79 37.6733 210.429 37.51 211.138 37.51C211.848 37.51 212.478 37.6733 213.028 38C213.588 38.3173 214.022 38.7653 214.33 39.344C214.648 39.9226 214.806 40.5853 214.806 41.332ZM211.138 38.644C210.494 38.644 209.953 38.84 209.514 39.232C209.085 39.624 208.833 40.1373 208.758 40.772H213.518C213.444 40.1466 213.187 39.638 212.748 39.246C212.319 38.8446 211.782 38.644 211.138 38.644Z" fill="white"/>
<path d="M220.825 37.51C221.544 37.51 222.188 37.6686 222.757 37.986C223.327 38.3033 223.77 38.7466 224.087 39.316C224.414 39.8853 224.577 40.5433 224.577 41.29C224.577 42.0366 224.414 42.6993 224.087 43.278C223.77 43.8473 223.327 44.2906 222.757 44.608C222.188 44.9253 221.544 45.084 220.825 45.084C220.293 45.084 219.803 44.9813 219.355 44.776C218.917 44.5706 218.543 44.272 218.235 43.88V47.716H216.891V37.58H218.179V38.756C218.478 38.3453 218.856 38.0373 219.313 37.832C219.771 37.6173 220.275 37.51 220.825 37.51ZM220.713 43.908C221.189 43.908 221.614 43.8006 221.987 43.586C222.37 43.362 222.669 43.054 222.883 42.662C223.107 42.2606 223.219 41.8033 223.219 41.29C223.219 40.7766 223.107 40.324 222.883 39.932C222.669 39.5306 222.37 39.2226 221.987 39.008C221.614 38.7933 221.189 38.686 220.713 38.686C220.247 38.686 219.822 38.798 219.439 39.022C219.066 39.2366 218.767 39.54 218.543 39.932C218.329 40.324 218.221 40.7766 218.221 41.29C218.221 41.8033 218.329 42.2606 218.543 42.662C218.758 43.054 219.057 43.362 219.439 43.586C219.822 43.8006 220.247 43.908 220.713 43.908Z" fill="white"/>
<path d="M226.53 37.58H227.874V40.73H232.102V37.58H233.446V45H232.102V41.892H227.874V45H226.53V37.58Z" fill="white"/>
<path d="M242.765 41.332C242.765 41.4346 242.756 41.57 242.737 41.738H236.717C236.801 42.3913 237.086 42.9186 237.571 43.32C238.066 43.712 238.677 43.908 239.405 43.908C240.292 43.908 241.006 43.6093 241.547 43.012L242.289 43.88C241.953 44.272 241.533 44.5706 241.029 44.776C240.535 44.9813 239.979 45.084 239.363 45.084C238.579 45.084 237.884 44.9253 237.277 44.608C236.671 44.2813 236.199 43.8286 235.863 43.25C235.537 42.6713 235.373 42.018 235.373 41.29C235.373 40.5713 235.532 39.9226 235.849 39.344C236.176 38.7653 236.619 38.3173 237.179 38C237.749 37.6733 238.388 37.51 239.097 37.51C239.807 37.51 240.437 37.6733 240.987 38C241.547 38.3173 241.981 38.7653 242.289 39.344C242.607 39.9226 242.765 40.5853 242.765 41.332ZM239.097 38.644C238.453 38.644 237.912 38.84 237.473 39.232C237.044 39.624 236.792 40.1373 236.717 40.772H241.477C241.403 40.1466 241.146 39.638 240.707 39.246C240.278 38.8446 239.741 38.644 239.097 38.644Z" fill="white"/>
<path d="M250.38 38.756H247.664V45H246.32V38.756H243.604V37.58H250.38V38.756Z" fill="white"/>
<path d="M252.741 40.576H256.507V41.738H252.741V40.576Z" fill="white"/>
<path d="M263 37.51C264.027 37.51 264.811 37.762 265.352 38.266C265.903 38.77 266.178 39.5213 266.178 40.52V45H264.904V44.02C264.68 44.3653 264.358 44.6313 263.938 44.818C263.527 44.9953 263.037 45.084 262.468 45.084C261.637 45.084 260.97 44.8833 260.466 44.482C259.971 44.0806 259.724 43.5533 259.724 42.9C259.724 42.2466 259.962 41.724 260.438 41.332C260.914 40.9306 261.67 40.73 262.706 40.73H264.834V40.464C264.834 39.8853 264.666 39.442 264.33 39.134C263.994 38.826 263.499 38.672 262.846 38.672C262.407 38.672 261.978 38.7466 261.558 38.896C261.138 39.036 260.783 39.2273 260.494 39.47L259.934 38.462C260.317 38.154 260.774 37.9206 261.306 37.762C261.838 37.594 262.403 37.51 263 37.51ZM262.692 44.048C263.205 44.048 263.649 43.936 264.022 43.712C264.395 43.4786 264.666 43.152 264.834 42.732V41.696H262.762C261.623 41.696 261.054 42.0786 261.054 42.844C261.054 43.2173 261.199 43.5113 261.488 43.726C261.777 43.9406 262.179 44.048 262.692 44.048Z" fill="white"/>
<path d="M271.482 41.864H269.942V45H268.598V37.58H269.942V40.716H271.51L273.918 37.58H275.36L272.546 41.15L275.556 45H273.974L271.482 41.864Z" fill="white"/>
<path d="M279.475 37.51C280.501 37.51 281.285 37.762 281.827 38.266C282.377 38.77 282.653 39.5213 282.653 40.52V45H281.379V44.02C281.155 44.3653 280.833 44.6313 280.413 44.818C280.002 44.9953 279.512 45.084 278.943 45.084C278.112 45.084 277.445 44.8833 276.941 44.482C276.446 44.0806 276.199 43.5533 276.199 42.9C276.199 42.2466 276.437 41.724 276.913 41.332C277.389 40.9306 278.145 40.73 279.181 40.73H281.309V40.464C281.309 39.8853 281.141 39.442 280.805 39.134C280.469 38.826 279.974 38.672 279.321 38.672C278.882 38.672 278.453 38.7466 278.033 38.896C277.613 39.036 277.258 39.2273 276.969 39.47L276.409 38.462C276.791 38.154 277.249 37.9206 277.781 37.762C278.313 37.594 278.877 37.51 279.475 37.51ZM279.167 44.048C279.68 44.048 280.123 43.936 280.497 43.712C280.87 43.4786 281.141 43.152 281.309 42.732V41.696H279.237C278.098 41.696 277.529 42.0786 277.529 42.844C277.529 43.2173 277.673 43.5113 277.963 43.726C278.252 43.9406 278.653 44.048 279.167 44.048Z" fill="white"/>
<path d="M292.619 43.824V46.722H291.359V45H285.157V46.722H283.883V43.824H284.275C284.751 43.796 285.078 43.46 285.255 42.816C285.432 42.172 285.554 41.262 285.619 40.086L285.731 37.58H291.485V43.824H292.619ZM286.851 40.184C286.814 41.1173 286.734 41.892 286.613 42.508C286.501 43.1146 286.291 43.5533 285.983 43.824H290.141V38.756H286.921L286.851 40.184Z" fill="white"/>
<path d="M301.076 41.332C301.076 41.4346 301.066 41.57 301.048 41.738H295.028C295.112 42.3913 295.396 42.9186 295.882 43.32C296.376 43.712 296.988 43.908 297.716 43.908C298.602 43.908 299.316 43.6093 299.858 43.012L300.6 43.88C300.264 44.272 299.844 44.5706 299.34 44.776C298.845 44.9813 298.29 45.084 297.674 45.084C296.89 45.084 296.194 44.9253 295.588 44.608C294.981 44.2813 294.51 43.8286 294.174 43.25C293.847 42.6713 293.684 42.018 293.684 41.29C293.684 40.5713 293.842 39.9226 294.16 39.344C294.486 38.7653 294.93 38.3173 295.49 38C296.059 37.6733 296.698 37.51 297.408 37.51C298.117 37.51 298.747 37.6733 299.298 38C299.858 38.3173 300.292 38.7653 300.6 39.344C300.917 39.9226 301.076 40.5853 301.076 41.332ZM297.408 38.644C296.764 38.644 296.222 38.84 295.784 39.232C295.354 39.624 295.102 40.1373 295.028 40.772H299.788C299.713 40.1466 299.456 39.638 299.018 39.246C298.588 38.8446 298.052 38.644 297.408 38.644Z" fill="white"/>
<path d="M311.715 37.58V45H310.497V39.582L307.725 44.16H307.137L304.393 39.568V45H303.161V37.58H304.547L307.459 42.592L310.455 37.58H311.715Z" fill="white"/>
<path d="M314.331 37.58H315.675V42.984L320.225 37.58H321.443V45H320.099V39.596L315.563 45H314.331V37.58Z" fill="white"/>
<path d="M330.001 37.58V45H328.797V42.648H326.487L324.863 45H323.421L325.227 42.466C324.667 42.298 324.238 42.0226 323.939 41.64C323.641 41.248 323.491 40.7626 323.491 40.184C323.491 39.3346 323.781 38.6906 324.359 38.252C324.938 37.804 325.736 37.58 326.753 37.58H330.001ZM324.863 40.226C324.863 40.7206 325.017 41.0893 325.325 41.332C325.643 41.5653 326.114 41.682 326.739 41.682H328.797V38.756H326.795C325.507 38.756 324.863 39.246 324.863 40.226Z" fill="white"/>
<path d="M68.2726 18.8H59.3446L57.4966 23H55.0246L62.6326 6.2H65.0086L72.6406 23H70.1206L68.2726 18.8ZM67.4326 16.88L63.8086 8.648L60.1846 16.88H67.4326ZM83.8643 23.192C82.1843 23.192 80.6643 22.824 79.3043 22.088C77.9603 21.336 76.9043 20.312 76.1363 19.016C75.3683 17.704 74.9843 16.232 74.9843 14.6C74.9843 12.968 75.3683 11.504 76.1363 10.208C76.9043 8.896 77.9683 7.872 79.3283 7.136C80.6883 6.384 82.2083 6.008 83.8883 6.008C85.2003 6.008 86.4003 6.232 87.4883 6.68C88.5763 7.112 89.5043 7.76 90.2723 8.624L88.7123 10.136C87.4483 8.808 85.8723 8.144 83.9843 8.144C82.7363 8.144 81.6083 8.424 80.6003 8.984C79.5923 9.544 78.8003 10.32 78.2243 11.312C77.6643 12.288 77.3843 13.384 77.3843 14.6C77.3843 15.816 77.6643 16.92 78.2243 17.912C78.8003 18.888 79.5923 19.656 80.6003 20.216C81.6083 20.776 82.7363 21.056 83.9843 21.056C85.8563 21.056 87.4323 20.384 88.7123 19.04L90.2723 20.552C89.5043 21.416 88.5683 22.072 87.4643 22.52C86.3763 22.968 85.1763 23.192 83.8643 23.192ZM105.442 18.8H96.5137L94.6657 23H92.1937L99.8017 6.2H102.178L109.81 23H107.29L105.442 18.8ZM104.602 16.88L100.978 8.648L97.3537 16.88H104.602ZM113.756 6.2H120.836C122.612 6.2 124.188 6.552 125.564 7.256C126.94 7.96 128.004 8.952 128.756 10.232C129.524 11.496 129.908 12.952 129.908 14.6C129.908 16.248 129.524 17.712 128.756 18.992C128.004 20.256 126.94 21.24 125.564 21.944C124.188 22.648 122.612 23 120.836 23H113.756V6.2ZM120.692 20.912C122.052 20.912 123.244 20.648 124.268 20.12C125.308 19.592 126.108 18.856 126.668 17.912C127.228 16.952 127.508 15.848 127.508 14.6C127.508 13.352 127.228 12.256 126.668 11.312C126.108 10.352 125.308 9.608 124.268 9.08C123.244 8.552 122.052 8.288 120.692 8.288H116.156V20.912H120.692ZM147.216 20.912V23H135.024V6.2H146.88V8.288H137.424V13.448H145.848V15.488H137.424V20.912H147.216ZM168.118 23L168.094 10.76L162.022 20.96H160.918L154.846 10.832V23H152.542V6.2H154.51L161.518 18.008L168.43 6.2H170.398L170.422 23H168.118ZM187.2 20.072H180.816L179.688 23H173.928L181.272 6.2H186.84L194.184 23H188.328L187.2 20.072ZM185.64 15.992L184.008 11.768L182.376 15.992H185.64ZM199.332 10.592H194.412V6.2H209.916V10.592H204.996V23H199.332V10.592ZM223.431 20.072H217.047L215.919 23H210.159L217.503 6.2H223.071L230.415 23H224.559L223.431 20.072ZM221.871 15.992L220.239 11.768L218.607 15.992H221.871Z" fill="white"/>
</svg>
