<svg width="87" height="106" viewBox="0 0 87 106" fill="none" xmlns="http://www.w3.org/2000/svg">
<path d="M78.4532 40.9923L77.1769 50.4372C75.4307 63.3593 64.3996 73 51.36 73H35.6437C22.6041 73 11.573 63.3593 9.82675 50.4372L8.55041 40.9923C5.69053 19.8292 22.1464 1 43.5018 1C64.8573 1 81.3131 19.8292 78.4532 40.9923Z" stroke="#0066E0" stroke-width="2"/>
<mask id="path-2-inside-1" fill="white">
<path fill-rule="evenodd" clip-rule="evenodd" d="M9.23137 32.0132C8.90301 34.9693 8.91779 38.0234 9.31657 41.1262L10.5304 50.5711C10.5566 50.7747 10.5849 50.9776 10.6153 51.1796C10.2514 51.677 9.66344 52 9 52H2C0.895431 52 0 51.1046 0 50V34C0 32.8954 0.895431 32 2 32H9C9.07825 32 9.15546 32.0045 9.23137 32.0132ZM76.3847 51.1796C76.4151 50.9776 76.4434 50.7747 76.4696 50.5711L77.6834 41.1262C78.0822 38.0234 78.097 34.9693 77.7686 32.0132C77.8445 32.0045 77.9217 32 78 32H85C86.1046 32 87 32.8954 87 34V50C87 51.1046 86.1046 52 85 52H78C77.3366 52 76.7486 51.677 76.3847 51.1796Z"/>
</mask>
<path d="M9.31657 41.1262L11.3003 40.8712L11.3003 40.8712L9.31657 41.1262ZM9.23137 32.0132L11.2191 32.234L11.439 30.2543L9.46024 30.0264L9.23137 32.0132ZM10.5304 50.5711L12.5141 50.3162L12.5141 50.3162L10.5304 50.5711ZM10.6153 51.1796L12.2295 52.3604L12.7154 51.6962L12.593 50.8823L10.6153 51.1796ZM76.4696 50.5711L74.4859 50.3162L74.4859 50.3162L76.4696 50.5711ZM76.3847 51.1796L74.4069 50.8823L74.2846 51.6962L74.7705 52.3604L76.3847 51.1796ZM77.6834 41.1262L79.6671 41.3811L79.6671 41.3811L77.6834 41.1262ZM77.7686 32.0132L77.5398 30.0264L75.5609 30.2543L75.7809 32.234L77.7686 32.0132ZM11.3003 40.8712C10.9219 37.9273 10.9082 35.033 11.2191 32.234L7.24359 31.7924C6.89778 34.9057 6.91369 38.1194 7.33288 41.3811L11.3003 40.8712ZM12.5141 50.3162L11.3003 40.8712L7.33288 41.3811L8.54676 50.8261L12.5141 50.3162ZM12.593 50.8823C12.5648 50.6944 12.5385 50.5056 12.5141 50.3162L8.54676 50.8261C8.57475 51.0438 8.605 51.2608 8.63748 51.4769L12.593 50.8823ZM9 54C10.3283 54 11.5052 53.3505 12.2295 52.3604L9.00107 49.9988C9.00069 49.9993 9.00007 50 8.99933 50.0006C8.99861 50.0012 8.99831 50.0013 8.99871 50.0011C8.99924 50.0009 9.0003 50.0004 9.00162 50.0001C9.00317 49.9997 9.003 50 9 50V54ZM2 54H9V50H2V54ZM-2 50C-2 52.2091 -0.209138 54 2 54V50H-2ZM-2 34V50H2V34H-2ZM2 30C-0.20914 30 -2 31.7909 -2 34H2V34V30ZM9 30H2V34H9V30ZM9.46024 30.0264C9.30851 30.0089 9.15489 30 9 30V34C9.00161 34 9.0024 34.0001 9.00249 34.0001L9.46024 30.0264ZM74.4859 50.3162C74.4615 50.5056 74.4352 50.6944 74.4069 50.8823L78.3625 51.4769C78.395 51.2608 78.4252 51.0438 78.4532 50.826L74.4859 50.3162ZM75.6997 40.8712L74.4859 50.3162L78.4532 50.8261L79.6671 41.3811L75.6997 40.8712ZM75.7809 32.234C76.0918 35.033 76.0781 37.9273 75.6997 40.8712L79.6671 41.3811C80.0863 38.1194 80.1022 34.9057 79.7564 31.7924L75.7809 32.234ZM78 30C77.8451 30 77.6915 30.0089 77.5398 30.0264L77.9975 34.0001C77.9976 34.0001 77.9984 34 78 34V30ZM85 30H78V34H85V30ZM89 34C89 31.7909 87.2091 30 85 30V34H89ZM89 50V34H85V50H89ZM85 54C87.2091 54 89 52.2091 89 50H85V54ZM78 54H85V50H78V54ZM74.7705 52.3604C75.4948 53.3505 76.6717 54 78 54V50C77.997 50 77.9968 49.9997 77.9984 50.0001C77.9997 50.0004 78.0008 50.0009 78.0013 50.0011C78.0017 50.0013 78.0014 50.0012 78.0007 50.0006C77.9999 50 77.9993 49.9993 77.9989 49.9988L74.7705 52.3604Z" fill="#0066E0" mask="url(#path-2-inside-1)"/>
<mask id="path-4-inside-2" fill="white">
<path fill-rule="evenodd" clip-rule="evenodd" d="M17.821 65.2969C9.26263 71.1668 3.33635 80.6577 2.31891 91.6929L1 105.998H85L83.6811 91.6929C82.6857 80.8967 76.9918 71.5787 68.7314 65.6834C64.007 69.6418 57.9289 71.998 51.36 71.998H35.6437C28.8636 71.998 22.6065 69.4879 17.821 65.2969Z"/>
</mask>
<path d="M2.31891 91.6929L0.327359 91.5093L2.31891 91.6929ZM17.821 65.2969L19.1387 63.7923L17.9704 62.7692L16.6898 63.6475L17.821 65.2969ZM1 105.998L-0.991553 105.814L-1.19288 107.998H1V105.998ZM85 105.998V107.998H87.1929L86.9916 105.814L85 105.998ZM83.6811 91.6929L81.6895 91.8765L81.6895 91.8765L83.6811 91.6929ZM68.7314 65.6834L69.8933 64.0555L68.6334 63.1563L67.447 64.1504L68.7314 65.6834ZM4.31047 91.8765C5.27129 81.4553 10.8659 72.4924 18.9522 66.9462L16.6898 63.6475C7.65937 69.8412 1.40141 79.86 0.327359 91.5093L4.31047 91.8765ZM2.99155 106.182L4.31047 91.8765L0.327359 91.5093L-0.991553 105.814L2.99155 106.182ZM85 103.998H1V107.998H85V103.998ZM81.6895 91.8765L83.0084 106.182L86.9916 105.814L85.6726 91.5093L81.6895 91.8765ZM67.5696 67.3113C75.3743 72.8814 80.7495 81.6809 81.6895 91.8765L85.6726 91.5093C84.6219 80.1125 78.6093 70.276 69.8933 64.0555L67.5696 67.3113ZM67.447 64.1504C63.0706 67.8172 57.4438 69.998 51.36 69.998V73.998C58.414 73.998 64.9434 71.4664 70.0159 67.2164L67.447 64.1504ZM51.36 69.998H35.6437V73.998H51.36V69.998ZM35.6437 69.998C29.3646 69.998 23.5719 67.6748 19.1387 63.7923L16.5033 66.8014C21.6412 71.3011 28.3627 73.998 35.6437 73.998V69.998Z" fill="#0066E0" mask="url(#path-4-inside-2)"/>
<path d="M15 104.5V99.5L16 94" stroke="#0066E0" stroke-width="2"/>
<path d="M73 104.5V99.5L72 94" stroke="#0066E0" stroke-width="2"/>
<path d="M29.1145 26H57.8855C67.3852 26 74.4709 34.3395 72.7368 43.282C70.1866 56.4328 58.3101 66 44.4274 66H42.5726C28.6899 66 16.8134 56.4328 14.2632 43.282C12.5291 34.3395 19.6148 26 29.1145 26Z" stroke="#0066E0" stroke-width="2"/>
<path d="M31.9445 29H55.0555C62.5282 29 68.172 35.8214 66.7909 43.2099C64.7537 54.1085 55.2788 62 44.2449 62H42.7551C31.7212 62 22.2463 54.1085 20.2091 43.2099C18.828 35.8214 24.4718 29 31.9445 29Z" stroke="#0066E0" stroke-width="2"/>
<circle cx="36" cy="39" r="1" fill="#0066E0"/>
<circle cx="52" cy="39" r="1" fill="#0066E0"/>
<path d="M41 52C42.5 53.3333 45.5 53.3333 47 52" stroke="#0066E0" stroke-width="2" stroke-linecap="round"/>
<rect x="31" y="36" width="10" height="6" stroke="#0066E0" stroke-width="2"/>
<rect x="47" y="36" width="10" height="6" stroke="#0066E0" stroke-width="2"/>
<rect x="42" y="38" width="4" height="2" fill="#0066E0"/>
<path d="M41 26C39.5381 16.2456 36.8567 9.78172 30 4" stroke="#0066E0" stroke-width="2"/>
<path d="M47 26C48.4619 16.2456 51.1433 9.78172 58 4" stroke="#0066E0" stroke-width="2"/>
<rect x="23" y="86" width="12" height="4" stroke="#0066E0" stroke-width="2"/>
</svg>
