<svg width="100" height="100" viewBox="0 0 100 100" fill="none" xmlns="http://www.w3.org/2000/svg">
<mask id="path-1-inside-1" fill="white">
<path d="M58.56 93.6088C57.5592 93.2074 56.4217 93.6937 56.0203 94.6951C55.685 95.5316 54.8346 96.0938 53.9045 96.0938H46.7694C45.8393 96.0938 44.9889 95.5316 44.6535 94.6951C44.2522 93.6937 43.1153 93.2084 42.1139 93.6088C41.1127 94.0104 40.6264 95.1473 41.0278 96.1484C41.9658 98.4883 44.2194 100 46.7694 100H53.9045C56.4545 100 58.708 98.4883 59.6459 96.1484C60.0475 95.1473 59.5612 94.0104 58.56 93.6088Z"/>
<path d="M81.4973 83.5473C80.9668 80.8121 79.2817 78.4441 76.8729 77.0457C77.311 76.6879 77.7219 76.2922 78.0969 75.8564C79.9467 73.7074 80.7659 70.8666 80.3438 68.0629C79.6584 63.5074 77.7196 59.251 74.7369 55.7535C72.5037 53.135 69.7588 51.0248 66.6867 49.542C70.4463 45.5314 72.7526 40.1428 72.7526 34.225C72.7524 23.984 65.8487 15.3248 56.4508 12.657C57.7309 11.1287 58.4293 9.21934 58.4293 7.20176C58.4295 3.23066 55.1987 0 51.2278 0H51.2272C49.6243 0 48.1229 0.521289 47 1.46758C45.759 2.51328 45.0756 3.98301 45.0754 5.60586C45.0754 6.68437 45.9498 7.55898 47.0285 7.55898C48.1071 7.55898 48.9817 6.68457 48.9817 5.60586C48.9817 5.14121 49.1617 4.75391 49.5172 4.4543C49.9367 4.10078 50.544 3.90605 51.2274 3.90605H51.2276C53.0448 3.90605 54.5233 5.38418 54.5233 7.20137C54.5233 8.43223 54.044 9.58926 53.1737 10.4596C52.3033 11.3297 51.1465 11.809 49.916 11.809H49.9157C49.8678 11.809 49.8209 11.8127 49.7741 11.8162C37.6733 12.1162 27.9215 22.0531 27.9213 34.2248C27.9213 40.1426 30.2276 45.5313 33.9871 49.5418C30.9153 51.0246 28.1703 53.1346 25.9371 55.7533C22.9545 59.2508 21.0157 63.5072 20.3301 68.0625C19.9082 70.8664 20.7272 73.7072 22.577 75.8563C22.952 76.292 23.3629 76.6879 23.801 77.0455C21.3922 78.4439 19.7069 80.8119 19.1766 83.5471C18.6448 86.2893 19.3272 89.1238 21.0485 91.3236L25.2311 96.6684C26.9209 98.8277 29.4879 99.9889 32.0916 99.9889C33.5698 99.9889 35.06 99.6146 36.408 98.8363C40.1309 96.6869 41.7262 92.0596 40.119 88.0729L37.5817 81.7783C37.4121 81.3578 37.2117 80.9545 36.9881 80.567H51.3135C52.3922 80.567 53.2666 79.6924 53.2666 78.6139C53.2666 77.5353 52.3922 76.6607 51.3135 76.6607H33.2752V72.5434C33.2752 72.0131 33.7065 71.5818 34.2367 71.5818H66.4373C66.9674 71.5818 67.3989 72.0131 67.3989 72.5434V76.9309C65.461 77.9932 63.9311 79.6971 63.092 81.7783L60.5547 88.0727C58.9475 92.0596 60.5428 96.6869 64.2657 98.8363C65.6139 99.6146 67.1035 99.9889 68.5821 99.9889C71.1856 99.9889 73.753 98.8275 75.4428 96.6684L79.6252 91.3236C81.3469 89.1238 82.0291 86.2895 81.4973 83.5473ZM31.8274 34.225C31.8276 24.0189 40.1311 15.7156 50.3369 15.7154C60.5428 15.7156 68.8463 24.0189 68.8465 34.225C68.8465 44.4311 60.5432 52.7344 50.3369 52.7346C40.1309 52.7344 31.8274 44.4311 31.8274 34.225ZM33.9592 83.2389L36.4965 89.5336C37.3803 91.7264 36.5026 94.2715 34.4551 95.4537C32.4078 96.6359 29.7647 96.1236 28.3075 94.2613L24.1248 88.9166C23.1008 87.6082 22.695 85.9223 23.0114 84.291C23.3278 82.6598 24.3346 81.2477 25.7737 80.4168C27.2125 79.5859 28.9389 79.4205 30.5098 79.9617C32.0807 80.5033 33.3379 81.698 33.9592 83.2389ZM66.4502 63.7695C65.3715 63.7695 64.4971 64.6441 64.4971 65.7227V67.6758H36.1897V65.7227C36.1897 64.6441 35.3153 63.7695 34.2366 63.7695C33.1578 63.7695 32.2834 64.6441 32.2834 65.7227V68.0861C30.5692 68.8402 29.3688 70.5539 29.3688 72.5436V75.3016C27.8897 75.1537 26.5172 74.4463 25.5373 73.308C24.4305 72.0219 23.9405 70.3219 24.1928 68.6439C25.311 61.2117 30.2664 55.0709 37.2233 52.3928C40.9131 55.0635 45.444 56.6406 50.3369 56.6406C55.2299 56.6406 59.7608 55.0635 63.4506 52.3928C70.4075 55.0709 75.3629 61.2117 76.4811 68.6439C76.7334 70.3219 76.2434 72.0219 75.1364 73.308C74.1567 74.4463 72.784 75.1537 71.3049 75.3016V72.5436C71.3049 70.559 70.1106 68.849 68.4034 68.092V65.7227C68.4034 64.6441 67.5289 63.7695 66.4502 63.7695ZM76.5491 88.9164L72.3666 94.2611C70.9094 96.123 68.2666 96.6355 66.219 95.4535C64.1713 94.2713 63.2938 91.7262 64.1778 89.533L66.7151 83.2385C67.3364 81.6975 68.5936 80.5029 70.1645 79.9613C70.7729 79.7518 71.4045 79.648 72.0338 79.648C73.0293 79.648 74.019 79.9076 74.9006 80.4166C76.3397 81.2475 77.3463 82.6596 77.6629 84.2908C77.9789 85.9221 77.5731 87.608 76.5491 88.9164Z"/>
<path d="M60.4522 77.2324C60.0889 76.8691 59.585 76.6602 59.0713 76.6602C58.5576 76.6602 58.0537 76.8689 57.6905 77.2324C57.3272 77.5959 57.1182 78.0996 57.1182 78.6133C57.1182 79.1289 57.3272 79.6309 57.6905 79.9939C58.0537 80.3592 58.5576 80.5664 59.0713 80.5664C59.585 80.5664 60.0889 80.3592 60.4522 79.9939C60.8155 79.6309 61.0244 79.127 61.0244 78.6133C61.0244 78.0996 60.8155 77.5957 60.4522 77.2324Z"/>
<path d="M55.7217 40.8949C54.8838 40.2156 53.6539 40.3447 52.9746 41.1824C52.3256 41.9832 51.3641 42.4424 50.3369 42.4424C49.3098 42.4424 48.3481 41.983 47.6992 41.1824C47.0201 40.3443 45.7903 40.216 44.9522 40.8949C44.1141 41.574 43.9854 42.8039 44.6647 43.642C46.0588 45.3621 48.1264 46.3484 50.3369 46.3484C52.5475 46.3484 54.6153 45.3619 56.0092 43.642C56.6885 42.8039 56.5598 41.574 55.7217 40.8949Z"/>
<path d="M45.4016 32.8438C43.6299 31.0721 40.7471 31.0721 38.975 32.8438C38.2123 33.6064 38.2121 34.843 38.975 35.6059C39.7377 36.3688 40.9744 36.3687 41.7371 35.6061C41.9858 35.3574 42.3907 35.3574 42.6395 35.6061C43.0209 35.9873 43.5207 36.1781 44.0205 36.1781C44.5203 36.1781 45.0203 35.9873 45.4016 35.6061C46.1643 34.8434 46.1643 33.6066 45.4016 32.8438Z"/>
<path d="M61.6989 32.8436C59.927 31.0721 57.044 31.0721 55.2723 32.8436C54.5096 33.6062 54.5096 34.843 55.2723 35.6059C55.6535 35.9873 56.1535 36.1779 56.6534 36.1779C57.1532 36.1779 57.6532 35.9871 58.0344 35.6059C58.283 35.3574 58.6879 35.357 58.9368 35.6059C59.6994 36.3688 60.9362 36.3686 61.6989 35.6057C62.4616 34.843 62.4616 33.6064 61.6989 32.8436Z"/>
</mask>
<path d="M58.56 93.6088C57.5592 93.2074 56.4217 93.6937 56.0203 94.6951C55.685 95.5316 54.8346 96.0938 53.9045 96.0938H46.7694C45.8393 96.0938 44.9889 95.5316 44.6535 94.6951C44.2522 93.6937 43.1153 93.2084 42.1139 93.6088C41.1127 94.0104 40.6264 95.1473 41.0278 96.1484C41.9658 98.4883 44.2194 100 46.7694 100H53.9045C56.4545 100 58.708 98.4883 59.6459 96.1484C60.0475 95.1473 59.5612 94.0104 58.56 93.6088Z" stroke="#0066E0" stroke-width="2" mask="url(#path-1-inside-1)"/>
<path d="M81.4973 83.5473C80.9668 80.8121 79.2817 78.4441 76.8729 77.0457C77.311 76.6879 77.7219 76.2922 78.0969 75.8564C79.9467 73.7074 80.7659 70.8666 80.3438 68.0629C79.6584 63.5074 77.7196 59.251 74.7369 55.7535C72.5037 53.135 69.7588 51.0248 66.6867 49.542C70.4463 45.5314 72.7526 40.1428 72.7526 34.225C72.7524 23.984 65.8487 15.3248 56.4508 12.657C57.7309 11.1287 58.4293 9.21934 58.4293 7.20176C58.4295 3.23066 55.1987 0 51.2278 0H51.2272C49.6243 0 48.1229 0.521289 47 1.46758C45.759 2.51328 45.0756 3.98301 45.0754 5.60586C45.0754 6.68437 45.9498 7.55898 47.0285 7.55898C48.1071 7.55898 48.9817 6.68457 48.9817 5.60586C48.9817 5.14121 49.1617 4.75391 49.5172 4.4543C49.9367 4.10078 50.544 3.90605 51.2274 3.90605H51.2276C53.0448 3.90605 54.5233 5.38418 54.5233 7.20137C54.5233 8.43223 54.044 9.58926 53.1737 10.4596C52.3033 11.3297 51.1465 11.809 49.916 11.809H49.9157C49.8678 11.809 49.8209 11.8127 49.7741 11.8162C37.6733 12.1162 27.9215 22.0531 27.9213 34.2248C27.9213 40.1426 30.2276 45.5313 33.9871 49.5418C30.9153 51.0246 28.1703 53.1346 25.9371 55.7533C22.9545 59.2508 21.0157 63.5072 20.3301 68.0625C19.9082 70.8664 20.7272 73.7072 22.577 75.8563C22.952 76.292 23.3629 76.6879 23.801 77.0455C21.3922 78.4439 19.7069 80.8119 19.1766 83.5471C18.6448 86.2893 19.3272 89.1238 21.0485 91.3236L25.2311 96.6684C26.9209 98.8277 29.4879 99.9889 32.0916 99.9889C33.5698 99.9889 35.06 99.6146 36.408 98.8363C40.1309 96.6869 41.7262 92.0596 40.119 88.0729L37.5817 81.7783C37.4121 81.3578 37.2117 80.9545 36.9881 80.567H51.3135C52.3922 80.567 53.2666 79.6924 53.2666 78.6139C53.2666 77.5353 52.3922 76.6607 51.3135 76.6607H33.2752V72.5434C33.2752 72.0131 33.7065 71.5818 34.2367 71.5818H66.4373C66.9674 71.5818 67.3989 72.0131 67.3989 72.5434V76.9309C65.461 77.9932 63.9311 79.6971 63.092 81.7783L60.5547 88.0727C58.9475 92.0596 60.5428 96.6869 64.2657 98.8363C65.6139 99.6146 67.1035 99.9889 68.5821 99.9889C71.1856 99.9889 73.753 98.8275 75.4428 96.6684L79.6252 91.3236C81.3469 89.1238 82.0291 86.2895 81.4973 83.5473ZM31.8274 34.225C31.8276 24.0189 40.1311 15.7156 50.3369 15.7154C60.5428 15.7156 68.8463 24.0189 68.8465 34.225C68.8465 44.4311 60.5432 52.7344 50.3369 52.7346C40.1309 52.7344 31.8274 44.4311 31.8274 34.225ZM33.9592 83.2389L36.4965 89.5336C37.3803 91.7264 36.5026 94.2715 34.4551 95.4537C32.4078 96.6359 29.7647 96.1236 28.3075 94.2613L24.1248 88.9166C23.1008 87.6082 22.695 85.9223 23.0114 84.291C23.3278 82.6598 24.3346 81.2477 25.7737 80.4168C27.2125 79.5859 28.9389 79.4205 30.5098 79.9617C32.0807 80.5033 33.3379 81.698 33.9592 83.2389ZM66.4502 63.7695C65.3715 63.7695 64.4971 64.6441 64.4971 65.7227V67.6758H36.1897V65.7227C36.1897 64.6441 35.3153 63.7695 34.2366 63.7695C33.1578 63.7695 32.2834 64.6441 32.2834 65.7227V68.0861C30.5692 68.8402 29.3688 70.5539 29.3688 72.5436V75.3016C27.8897 75.1537 26.5172 74.4463 25.5373 73.308C24.4305 72.0219 23.9405 70.3219 24.1928 68.6439C25.311 61.2117 30.2664 55.0709 37.2233 52.3928C40.9131 55.0635 45.444 56.6406 50.3369 56.6406C55.2299 56.6406 59.7608 55.0635 63.4506 52.3928C70.4075 55.0709 75.3629 61.2117 76.4811 68.6439C76.7334 70.3219 76.2434 72.0219 75.1364 73.308C74.1567 74.4463 72.784 75.1537 71.3049 75.3016V72.5436C71.3049 70.559 70.1106 68.849 68.4034 68.092V65.7227C68.4034 64.6441 67.5289 63.7695 66.4502 63.7695ZM76.5491 88.9164L72.3666 94.2611C70.9094 96.123 68.2666 96.6355 66.219 95.4535C64.1713 94.2713 63.2938 91.7262 64.1778 89.533L66.7151 83.2385C67.3364 81.6975 68.5936 80.5029 70.1645 79.9613C70.7729 79.7518 71.4045 79.648 72.0338 79.648C73.0293 79.648 74.019 79.9076 74.9006 80.4166C76.3397 81.2475 77.3463 82.6596 77.6629 84.2908C77.9789 85.9221 77.5731 87.608 76.5491 88.9164Z" stroke="#0066E0" stroke-width="2" mask="url(#path-1-inside-1)"/>
<path d="M60.4522 77.2324C60.0889 76.8691 59.585 76.6602 59.0713 76.6602C58.5576 76.6602 58.0537 76.8689 57.6905 77.2324C57.3272 77.5959 57.1182 78.0996 57.1182 78.6133C57.1182 79.1289 57.3272 79.6309 57.6905 79.9939C58.0537 80.3592 58.5576 80.5664 59.0713 80.5664C59.585 80.5664 60.0889 80.3592 60.4522 79.9939C60.8155 79.6309 61.0244 79.127 61.0244 78.6133C61.0244 78.0996 60.8155 77.5957 60.4522 77.2324Z" stroke="#0066E0" stroke-width="2" mask="url(#path-1-inside-1)"/>
<path d="M55.7217 40.8949C54.8838 40.2156 53.6539 40.3447 52.9746 41.1824C52.3256 41.9832 51.3641 42.4424 50.3369 42.4424C49.3098 42.4424 48.3481 41.983 47.6992 41.1824C47.0201 40.3443 45.7903 40.216 44.9522 40.8949C44.1141 41.574 43.9854 42.8039 44.6647 43.642C46.0588 45.3621 48.1264 46.3484 50.3369 46.3484C52.5475 46.3484 54.6153 45.3619 56.0092 43.642C56.6885 42.8039 56.5598 41.574 55.7217 40.8949Z" stroke="#0066E0" stroke-width="2" mask="url(#path-1-inside-1)"/>
<path d="M45.4016 32.8438C43.6299 31.0721 40.7471 31.0721 38.975 32.8438C38.2123 33.6064 38.2121 34.843 38.975 35.6059C39.7377 36.3688 40.9744 36.3687 41.7371 35.6061C41.9858 35.3574 42.3907 35.3574 42.6395 35.6061C43.0209 35.9873 43.5207 36.1781 44.0205 36.1781C44.5203 36.1781 45.0203 35.9873 45.4016 35.6061C46.1643 34.8434 46.1643 33.6066 45.4016 32.8438Z" stroke="#0066E0" stroke-width="2" mask="url(#path-1-inside-1)"/>
<path d="M61.6989 32.8436C59.927 31.0721 57.044 31.0721 55.2723 32.8436C54.5096 33.6062 54.5096 34.843 55.2723 35.6059C55.6535 35.9873 56.1535 36.1779 56.6534 36.1779C57.1532 36.1779 57.6532 35.9871 58.0344 35.6059C58.283 35.3574 58.6879 35.357 58.9368 35.6059C59.6994 36.3688 60.9362 36.3686 61.6989 35.6057C62.4616 34.843 62.4616 33.6064 61.6989 32.8436Z" stroke="#0066E0" stroke-width="2" mask="url(#path-1-inside-1)"/>
</svg>
