<svg width="87" height="106" viewBox="0 0 87 106" fill="none" xmlns="http://www.w3.org/2000/svg">
<path d="M78.4532 40.9923L77.1769 50.4372C75.4307 63.3593 64.3996 73 51.36 73H35.6437C22.6041 73 11.573 63.3593 9.82675 50.4372L8.55041 40.9923C5.69053 19.8292 22.1464 1 43.5018 1C64.8573 1 81.3131 19.8292 78.4532 40.9923Z" stroke="#0066E0" stroke-width="2"/>
<mask id="path-2-inside-1" fill="white">
<path fill-rule="evenodd" clip-rule="evenodd" d="M9.8679 28.1389C8.96555 32.2676 8.74077 36.6461 9.31657 41.1262L10.5304 50.5711C10.5606 50.8058 10.5936 51.0395 10.6293 51.2722C10.2946 51.7143 9.764 52 9.16667 52C4.10406 52 0 47.8959 0 42.8333V37.1667C0 32.1041 4.10406 28 9.16667 28C9.41504 28 9.65188 28.0494 9.8679 28.1389ZM76.3707 51.2721C76.4064 51.0395 76.4394 50.8058 76.4696 50.5711L77.6834 41.1262C78.2592 36.6461 78.0345 32.2676 77.1321 28.1389C77.3481 28.0494 77.585 28 77.8333 28C82.8959 28 87 32.1041 87 37.1667V42.8333C87 47.8959 82.8959 52 77.8333 52C77.236 52 76.7054 51.7143 76.3707 51.2721Z"/>
</mask>
<path d="M9.31657 41.1262L7.33288 41.3811L7.33288 41.3811L9.31657 41.1262ZM9.8679 28.1389L11.8218 28.5659L12.179 26.9315L10.6334 26.2912L9.8679 28.1389ZM10.5304 50.5711L12.5141 50.3162L12.5141 50.3162L10.5304 50.5711ZM10.6293 51.2722L12.224 52.4793L12.7346 51.8047L12.6061 50.9684L10.6293 51.2722ZM76.4696 50.5711L74.4859 50.3162L74.4859 50.3162L76.4696 50.5711ZM76.3707 51.2721L74.3939 50.9684L74.2654 51.8047L74.776 52.4793L76.3707 51.2721ZM77.6834 41.1262L75.6997 40.8712L77.6834 41.1262ZM77.1321 28.1389L76.3666 26.2912L74.821 26.9315L75.1782 28.5659L77.1321 28.1389ZM11.3003 40.8712C10.754 36.6211 10.9678 32.4733 11.8218 28.5659L7.91402 27.7119C6.9633 32.0619 6.72753 36.671 7.33288 41.3811L11.3003 40.8712ZM12.5141 50.3162L11.3003 40.8712L7.33288 41.3811L8.54676 50.8261L12.5141 50.3162ZM12.6061 50.9684C12.5729 50.752 12.5422 50.5346 12.5141 50.3162L8.54676 50.8261C8.57903 51.0771 8.6143 51.327 8.65253 51.5759L12.6061 50.9684ZM9.16667 54C10.4169 54 11.5275 53.3994 12.224 52.4793L9.03469 50.065C9.04863 50.0466 9.06688 50.0309 9.08999 50.0191C9.11519 50.0063 9.14309 50 9.16667 50V54ZM-2 42.8333C-2 49.0005 2.99949 54 9.16667 54V50C5.20863 50 2 46.7914 2 42.8333H-2ZM-2 37.1667V42.8333H2V37.1667H-2ZM9.16667 26C2.99949 26 -2 30.9995 -2 37.1667H2C2 33.2086 5.20863 30 9.16667 30V26ZM10.6334 26.2912C10.179 26.1029 9.68233 26 9.16667 26V30C9.14776 30 9.12479 29.9959 9.10239 29.9866L10.6334 26.2912ZM74.4859 50.3162C74.4578 50.5346 74.4271 50.752 74.3939 50.9684L78.3475 51.5759C78.3857 51.327 78.421 51.0771 78.4532 50.826L74.4859 50.3162ZM75.6997 40.8712L74.4859 50.3162L78.4532 50.8261L79.6671 41.3811L75.6997 40.8712ZM75.1782 28.5659C76.0322 32.4733 76.246 36.6211 75.6997 40.8712L79.6671 41.3811C80.2725 36.671 80.0367 32.0619 79.086 27.7119L75.1782 28.5659ZM77.8333 26C77.3177 26 76.821 26.1029 76.3666 26.2912L77.8976 29.9866C77.8752 29.9959 77.8522 30 77.8333 30V26ZM89 37.1667C89 30.9995 84.0005 26 77.8333 26V30C81.7914 30 85 33.2086 85 37.1667H89ZM89 42.8333V37.1667H85V42.8333H89ZM77.8333 54C84.0005 54 89 49.0005 89 42.8333H85C85 46.7914 81.7914 50 77.8333 50V54ZM74.776 52.4793C75.4725 53.3994 76.5831 54 77.8333 54V50C77.8569 50 77.8848 50.0063 77.91 50.0191C77.9331 50.0309 77.9514 50.0466 77.9653 50.065L74.776 52.4793Z" fill="#0066E0" mask="url(#path-2-inside-1)"/>
<mask id="path-4-inside-2" fill="white">
<path fill-rule="evenodd" clip-rule="evenodd" d="M17.821 65.2969C9.26263 71.1668 3.33635 80.6577 2.31891 91.6929L1 105.998H85L83.6811 91.6929C82.6857 80.8967 76.9918 71.5787 68.7314 65.6834C64.007 69.6418 57.9289 71.998 51.36 71.998H35.6437C28.8636 71.998 22.6065 69.4879 17.821 65.2969Z"/>
</mask>
<path d="M2.31891 91.6929L0.327359 91.5093L2.31891 91.6929ZM17.821 65.2969L19.1387 63.7923L17.9704 62.7692L16.6898 63.6475L17.821 65.2969ZM1 105.998L-0.991553 105.814L-1.19288 107.998H1V105.998ZM85 105.998V107.998H87.1929L86.9916 105.814L85 105.998ZM83.6811 91.6929L81.6895 91.8765L81.6895 91.8765L83.6811 91.6929ZM68.7314 65.6834L69.8933 64.0555L68.6334 63.1563L67.447 64.1504L68.7314 65.6834ZM4.31047 91.8765C5.27129 81.4553 10.8659 72.4924 18.9522 66.9462L16.6898 63.6475C7.65937 69.8412 1.40141 79.86 0.327359 91.5093L4.31047 91.8765ZM2.99155 106.182L4.31047 91.8765L0.327359 91.5093L-0.991553 105.814L2.99155 106.182ZM85 103.998H1V107.998H85V103.998ZM81.6895 91.8765L83.0084 106.182L86.9916 105.814L85.6726 91.5093L81.6895 91.8765ZM67.5696 67.3113C75.3743 72.8814 80.7495 81.6809 81.6895 91.8765L85.6726 91.5093C84.6219 80.1125 78.6093 70.276 69.8933 64.0555L67.5696 67.3113ZM67.447 64.1504C63.0706 67.8172 57.4438 69.998 51.36 69.998V73.998C58.414 73.998 64.9434 71.4664 70.0159 67.2164L67.447 64.1504ZM51.36 69.998H35.6437V73.998H51.36V69.998ZM35.6437 69.998C29.3646 69.998 23.5719 67.6748 19.1387 63.7923L16.5033 66.8014C21.6412 71.3011 28.3627 73.998 35.6437 73.998V69.998Z" fill="#0066E0" mask="url(#path-4-inside-2)"/>
<path d="M29.2407 26H57.7556C67.128 26 74.1942 34.5163 72.465 43.7277C69.9317 57.2223 58.1477 67 44.4173 67H42.5791C28.8487 67 17.0647 57.2223 14.5313 43.7277C12.8021 34.5163 19.8684 26 29.2407 26Z" stroke="#0066E0" stroke-width="2"/>
<path d="M33.3594 31H53.6406C60.1104 31 65.0195 36.9664 63.8183 43.4522C62.0394 53.0572 53.7702 60 44.1537 60H42.8463C33.2298 60 24.9606 53.0572 23.1817 43.4522C21.9805 36.9664 26.8896 31 33.3594 31Z" stroke="#0066E0" stroke-width="2"/>
<circle cx="36" cy="39" r="2" fill="#0066E0"/>
<circle cx="52" cy="39" r="2" fill="#0066E0"/>
<path d="M40 51C42 52.3333 46 52.3333 48 51" stroke="#0066E0" stroke-width="2" stroke-linecap="round"/>
<path d="M40 2V26.5" stroke="#0066E0" stroke-width="2"/>
<path d="M48 2V26.5" stroke="#0066E0" stroke-width="2"/>
<path d="M14 104.5V99.5M14 99.5L12 97M14 99.5L16 97" stroke="#0066E0" stroke-width="2"/>
<path d="M72 104.5V99.5M72 99.5L70 97M72 99.5L74 97" stroke="#0066E0" stroke-width="2"/>
</svg>
