<svg width="100" height="100" viewBox="0 0 100 100" fill="none" xmlns="http://www.w3.org/2000/svg">
<mask id="path-1-inside-1" fill="white">
<path d="M81.9389 81.024C81.1299 81.024 80.474 81.6799 80.474 82.4889V96.2611C80.474 96.707 80.1111 97.0699 79.6652 97.0699H71.7908V68.2229C71.7908 67.4139 71.135 66.758 70.326 66.758C69.517 66.758 68.8611 67.4139 68.8611 68.2229V97.0701H53.0047L57.6029 92.0115C58.1053 91.4588 58.3422 90.6715 58.2365 89.9047C58.2346 89.8898 58.2322 89.875 58.2297 89.8602L53.8502 63.9877L55.0301 62.2115C55.6824 62.6748 56.185 63.1209 57.1274 63.1209C58.0859 63.1209 58.9822 62.5844 59.4232 61.7012V61.701L64.0424 52.4432L74.565 56.5184C74.9457 56.6816 80.4736 59.1711 80.4736 65.7445V75.6527C80.4734 76.4615 81.1293 77.1176 81.9385 77.1176C82.7475 77.1176 83.4033 76.4617 83.4033 75.6527V65.7445C83.4033 57.0836 75.9875 53.9354 75.6719 53.8055C75.6627 53.8016 75.6533 53.7979 75.644 53.7943L58.1307 47.0119V42.9045C60.9123 40.7412 62.841 37.5344 63.3252 33.8758C64.7121 33.7781 65.999 33.2602 67.05 32.3564C68.4225 31.1762 69.21 29.4584 69.21 27.6443C69.21 26.1389 68.6668 24.7014 67.6988 23.5813V18.1549C67.6986 8.14434 59.5545 0 49.5439 0C39.5334 0 31.3893 8.14434 31.3893 18.1549V23.7234C30.4109 24.8322 29.8789 26.1971 29.8789 27.6441C29.8789 29.4588 30.666 31.1764 32.0389 32.3568C33.0891 33.2602 34.3752 33.7775 35.7617 33.8754C36.2498 37.6025 38.2348 40.9289 41.2533 43.1213V47.0119L23.759 53.7941C23.7498 53.7977 23.7406 53.8014 23.7314 53.8051C23.4156 53.935 16 57.0832 16 65.7441V96.2607C16 98.3223 17.6771 99.9994 19.7387 99.9994H33.6951C34.5041 99.9994 35.16 99.3436 35.16 98.5346C35.16 97.7256 34.5041 97.0697 33.6951 97.0697H30.5434V68.2229C30.5434 67.4139 29.8875 66.758 29.0785 66.758C28.2695 66.758 27.6137 67.4139 27.6137 68.2229V97.0701H19.7389C19.293 97.0701 18.9301 96.7072 18.9301 96.2613V65.7443C18.9301 59.1488 24.4951 56.665 24.8369 56.5189L35.3514 52.4428L39.9709 61.701C40.4129 62.5863 41.3104 63.1209 42.267 63.1209C43.2047 63.1209 43.7023 62.6816 44.3643 62.2115L45.5441 63.9877L41.165 89.8603C41.1625 89.875 41.1604 89.8896 41.1582 89.9045C41.0523 90.6709 41.2893 91.4586 41.7918 92.0117L46.39 97.0703H40.5316C39.7227 97.0703 39.0668 97.7262 39.0668 98.5352C39.0668 99.3441 39.7227 100 40.5316 100H79.6654C81.727 100 83.4041 98.3227 83.4041 96.2613V82.4891C83.4037 81.6799 82.7479 81.024 81.9389 81.024ZM61.2984 51.3807L56.992 60.0115C56.885 59.9355 54.6027 58.3141 51.8129 56.333C53.0234 54.8387 51.6072 56.5867 57.1322 49.7672L61.2984 51.3807ZM52.6398 60.5143L51.5231 62.1953H47.8701L46.7533 60.5143L49.6967 58.4238L52.6398 60.5143ZM44.1828 47.4846V44.7432C45.9625 45.4605 47.8645 45.7932 49.7219 45.7932C51.6424 45.7932 53.5258 45.3838 55.2008 44.6514V47.4965L49.6967 54.2904L44.1828 47.4846ZM66.2801 27.6443C66.2799 28.6039 65.8643 29.5119 65.1397 30.1352C64.6606 30.5473 64.0818 30.8107 63.4481 30.9139V24.3754C65.1316 24.6488 66.2801 26.0453 66.2801 27.6443ZM35.6406 30.9139C33.9379 30.6375 32.8086 29.2297 32.8086 27.6441C32.8086 26.0781 34.1068 24.8035 35.6406 24.449V30.9139ZM35.7193 21.4641C35.2527 21.5176 34.718 21.6439 34.3193 21.7795V18.1549C34.3193 9.75977 41.149 2.92988 49.5441 2.92988C57.9393 2.92988 64.769 9.75977 64.769 18.1549V21.6789C64.3432 21.5494 63.9016 21.4639 63.4482 21.4236C63.4482 20.0102 63.4605 20.2828 58.8365 15.3115C57.9861 14.3979 56.5795 14.2064 55.509 14.9059C50.4055 18.2396 44.1799 19.9145 38.4357 19.502C37.1758 19.4076 36.0281 20.2375 35.7193 21.4641ZM38.5705 32.0672V22.4467C44.8938 22.817 51.5232 20.9385 56.8789 17.5086C58.9996 19.7855 60.1481 20.9799 60.5184 21.4342C60.5184 22.5834 60.5184 30.7516 60.5184 32.067C60.5184 38.0137 55.6695 42.8631 49.7221 42.8631C43.0436 42.8633 38.5705 37.6824 38.5705 32.0672ZM42.4016 60.0115L38.0951 51.3807L42.2539 49.7699L47.5744 56.3373C44.8688 58.2586 42.6471 59.8371 42.4016 60.0115ZM44.0822 90.1762L48.3223 65.1248H51.0705L55.3106 90.1762L49.6965 96.3525L44.0822 90.1762Z"/>
</mask>
<path d="M81.9389 81.024C81.1299 81.024 80.474 81.6799 80.474 82.4889V96.2611C80.474 96.707 80.1111 97.0699 79.6652 97.0699H71.7908V68.2229C71.7908 67.4139 71.135 66.758 70.326 66.758C69.517 66.758 68.8611 67.4139 68.8611 68.2229V97.0701H53.0047L57.6029 92.0115C58.1053 91.4588 58.3422 90.6715 58.2365 89.9047C58.2346 89.8898 58.2322 89.875 58.2297 89.8602L53.8502 63.9877L55.0301 62.2115C55.6824 62.6748 56.185 63.1209 57.1274 63.1209C58.0859 63.1209 58.9822 62.5844 59.4232 61.7012V61.701L64.0424 52.4432L74.565 56.5184C74.9457 56.6816 80.4736 59.1711 80.4736 65.7445V75.6527C80.4734 76.4615 81.1293 77.1176 81.9385 77.1176C82.7475 77.1176 83.4033 76.4617 83.4033 75.6527V65.7445C83.4033 57.0836 75.9875 53.9354 75.6719 53.8055C75.6627 53.8016 75.6533 53.7979 75.644 53.7943L58.1307 47.0119V42.9045C60.9123 40.7412 62.841 37.5344 63.3252 33.8758C64.7121 33.7781 65.999 33.2602 67.05 32.3564C68.4225 31.1762 69.21 29.4584 69.21 27.6443C69.21 26.1389 68.6668 24.7014 67.6988 23.5813V18.1549C67.6986 8.14434 59.5545 0 49.5439 0C39.5334 0 31.3893 8.14434 31.3893 18.1549V23.7234C30.4109 24.8322 29.8789 26.1971 29.8789 27.6441C29.8789 29.4588 30.666 31.1764 32.0389 32.3568C33.0891 33.2602 34.3752 33.7775 35.7617 33.8754C36.2498 37.6025 38.2348 40.9289 41.2533 43.1213V47.0119L23.759 53.7941C23.7498 53.7977 23.7406 53.8014 23.7314 53.8051C23.4156 53.935 16 57.0832 16 65.7441V96.2607C16 98.3223 17.6771 99.9994 19.7387 99.9994H33.6951C34.5041 99.9994 35.16 99.3436 35.16 98.5346C35.16 97.7256 34.5041 97.0697 33.6951 97.0697H30.5434V68.2229C30.5434 67.4139 29.8875 66.758 29.0785 66.758C28.2695 66.758 27.6137 67.4139 27.6137 68.2229V97.0701H19.7389C19.293 97.0701 18.9301 96.7072 18.9301 96.2613V65.7443C18.9301 59.1488 24.4951 56.665 24.8369 56.5189L35.3514 52.4428L39.9709 61.701C40.4129 62.5863 41.3104 63.1209 42.267 63.1209C43.2047 63.1209 43.7023 62.6816 44.3643 62.2115L45.5441 63.9877L41.165 89.8603C41.1625 89.875 41.1604 89.8896 41.1582 89.9045C41.0523 90.6709 41.2893 91.4586 41.7918 92.0117L46.39 97.0703H40.5316C39.7227 97.0703 39.0668 97.7262 39.0668 98.5352C39.0668 99.3441 39.7227 100 40.5316 100H79.6654C81.727 100 83.4041 98.3227 83.4041 96.2613V82.4891C83.4037 81.6799 82.7479 81.024 81.9389 81.024ZM61.2984 51.3807L56.992 60.0115C56.885 59.9355 54.6027 58.3141 51.8129 56.333C53.0234 54.8387 51.6072 56.5867 57.1322 49.7672L61.2984 51.3807ZM52.6398 60.5143L51.5231 62.1953H47.8701L46.7533 60.5143L49.6967 58.4238L52.6398 60.5143ZM44.1828 47.4846V44.7432C45.9625 45.4605 47.8645 45.7932 49.7219 45.7932C51.6424 45.7932 53.5258 45.3838 55.2008 44.6514V47.4965L49.6967 54.2904L44.1828 47.4846ZM66.2801 27.6443C66.2799 28.6039 65.8643 29.5119 65.1397 30.1352C64.6606 30.5473 64.0818 30.8107 63.4481 30.9139V24.3754C65.1316 24.6488 66.2801 26.0453 66.2801 27.6443ZM35.6406 30.9139C33.9379 30.6375 32.8086 29.2297 32.8086 27.6441C32.8086 26.0781 34.1068 24.8035 35.6406 24.449V30.9139ZM35.7193 21.4641C35.2527 21.5176 34.718 21.6439 34.3193 21.7795V18.1549C34.3193 9.75977 41.149 2.92988 49.5441 2.92988C57.9393 2.92988 64.769 9.75977 64.769 18.1549V21.6789C64.3432 21.5494 63.9016 21.4639 63.4482 21.4236C63.4482 20.0102 63.4605 20.2828 58.8365 15.3115C57.9861 14.3979 56.5795 14.2064 55.509 14.9059C50.4055 18.2396 44.1799 19.9145 38.4357 19.502C37.1758 19.4076 36.0281 20.2375 35.7193 21.4641ZM38.5705 32.0672V22.4467C44.8938 22.817 51.5232 20.9385 56.8789 17.5086C58.9996 19.7855 60.1481 20.9799 60.5184 21.4342C60.5184 22.5834 60.5184 30.7516 60.5184 32.067C60.5184 38.0137 55.6695 42.8631 49.7221 42.8631C43.0436 42.8633 38.5705 37.6824 38.5705 32.0672ZM42.4016 60.0115L38.0951 51.3807L42.2539 49.7699L47.5744 56.3373C44.8688 58.2586 42.6471 59.8371 42.4016 60.0115ZM44.0822 90.1762L48.3223 65.1248H51.0705L55.3106 90.1762L49.6965 96.3525L44.0822 90.1762Z" stroke="#0066E0" stroke-width="2" mask="url(#path-1-inside-1)"/>
</svg>
