<svg width="1385" height="488" viewBox="0 0 1385 488" fill="none" xmlns="http://www.w3.org/2000/svg">
<g filter="url(#filter0_d)">
<path fill-rule="evenodd" clip-rule="evenodd" d="M1059.57 177L959.633 187.952V368.658L1059.57 450.797L1159.5 368.658V187.952L1059.57 177ZM1059.57 190.428L973.323 199.956V360.17L1059.57 431.631L1145.81 360.17V199.956L1059.57 190.428Z" fill="#41A4FF"/>
<path d="M1074.79 208L1044.53 240.025V367.116L1074.79 335.091V208Z" fill="#41A4FF"/>
<path d="M1079.67 252.904L1088.45 262.339V331.974L1079.67 322.539V252.904Z" fill="#41A4FF"/>
<path d="M1039.64 256.809L1030.86 266.244V335.879L1039.64 326.444V256.809Z" fill="#41A4FF"/>
<path d="M1069.91 345.641L1053.31 363.258V389.568L1069.91 371.951V345.641Z" fill="#41A4FF"/>
<path d="M1069.91 382.734L1053.31 400.352V409.091L1069.91 391.474V382.734Z" fill="#41A4FF"/>
</g>
<g opacity="0.2">
<mask id="mask0" mask-type="alpha" maskUnits="userSpaceOnUse" x="0" y="0" width="1385" height="488">
<path fill-rule="evenodd" clip-rule="evenodd" d="M1385 0H0V488H1385V0ZM1059.57 177L959.631 187.952V368.658L1059.57 450.797L1159.5 368.658V187.952L1059.57 177Z" fill="#C4C4C4"/>
</mask>
<g mask="url(#mask0)">
<path d="M857.254 299.588L907.703 350.037H1381.92L1331.47 299.588H857.254Z" fill="#46A6FF"/>
<path d="M783.094 299.588L833.543 350.037H883.991L833.543 299.588H783.094Z" fill="#46A6FF"/>
<path d="M739.707 299.588L790.156 350.037H810.335L759.887 299.588H739.707Z" fill="#46A6FF"/>
<path d="M1156 311L1182.58 337.738H1432.46L1405.87 311H1156Z" fill="#A3D3FF"/>
<path d="M738.195 362.145L765.603 389.891H1154.4L1126.99 362.145H738.195Z" fill="#2C74C9"/>
<path d="M575.246 255.191L607.138 287.479H1004.06L972.169 255.191H575.246Z" fill="#0050AD"/>
<path d="M1050.98 265.281L1072.77 287.479H1508.04L1486.25 265.281H1050.98Z" fill="#6CC1FF"/>
<path d="M1142.29 362.145L1203.6 423.692H1517.63L1456.31 362.145H1142.29Z" fill="#0A51A5"/>
<path opacity="0.3" d="M0.996094 270L53.9826 324H615.996L563.01 270L0.996094 270Z" fill="#46A6FF"/>
<path d="M1041.48 20.1849C1065.11 43.8116 1065.11 82.1181 1041.48 105.745C1017.85 129.372 979.547 129.372 955.921 105.745C932.294 82.1181 932.294 43.8116 955.921 20.1849C979.547 -3.44183 1017.85 -3.44183 1041.48 20.1849ZM970.097 91.5687C985.894 107.366 1011.51 107.366 1027.3 91.5687C1043.1 75.7712 1043.1 50.1585 1027.3 34.361C1011.51 18.5635 985.894 18.5635 970.097 34.361C954.299 50.1585 954.299 75.7712 970.097 91.5687Z" fill="#6DB0FF"/>
<path d="M1153.91 61.9031C1159.96 67.9563 1159.96 77.7703 1153.91 83.8234C1147.86 89.8766 1138.04 89.8766 1131.99 83.8234C1125.94 77.7703 1125.94 67.9563 1131.99 61.9031C1138.04 55.85 1147.86 55.85 1153.91 61.9031ZM1137.92 77.8966C1140.7 80.6764 1145.21 80.6764 1147.98 77.8966C1150.76 75.1168 1150.76 70.6098 1147.98 67.83C1145.21 65.0501 1140.7 65.0501 1137.92 67.83C1135.14 70.6098 1135.14 75.1168 1137.92 77.8966Z" fill="#4683FA"/>
<path d="M902.89 150.291C911.677 159.078 911.677 173.324 902.89 182.111C894.103 190.898 879.857 190.898 871.07 182.111C862.283 173.324 862.283 159.078 871.07 150.291C879.857 141.504 894.103 141.504 902.89 150.291ZM883.051 170.13C885.221 172.3 888.739 172.3 890.909 170.13C893.079 167.96 893.079 164.442 890.909 162.272C888.739 160.102 885.221 160.102 883.051 162.272C880.881 164.442 880.881 167.96 883.051 170.13Z" fill="#4886FF"/>
</g>
</g>
<defs>
<filter id="filter0_d" x="953.633" y="175" width="211.872" height="285.797" filterUnits="userSpaceOnUse" color-interpolation-filters="sRGB">
<feFlood flood-opacity="0" result="BackgroundImageFix"/>
<feColorMatrix in="SourceAlpha" type="matrix" values="0 0 0 0 0 0 0 0 0 0 0 0 0 0 0 0 0 0 127 0"/>
<feOffset dy="4"/>
<feGaussianBlur stdDeviation="3"/>
<feColorMatrix type="matrix" values="0 0 0 0 0 0 0 0 0 0 0 0 0 0 0 0 0 0 0.25 0"/>
<feBlend mode="normal" in2="BackgroundImageFix" result="effect1_dropShadow"/>
<feBlend mode="normal" in="SourceGraphic" in2="effect1_dropShadow" result="shape"/>
</filter>
</defs>
</svg>
