<svg width="1385" height="488" viewBox="0 0 1385 488" fill="none" xmlns="http://www.w3.org/2000/svg">
<g filter="url(#filter0_d)">
<g filter="url(#filter1_d)">
<path fill-rule="evenodd" clip-rule="evenodd" d="M1059.57 177L959.633 187.952V368.658L1059.57 450.797L1159.5 368.658V187.952L1059.57 177ZM1059.57 190.428L973.323 199.956V360.17L1059.57 431.631L1145.81 360.17V199.956L1059.57 190.428Z" fill="#2797FF"/>
<path d="M1074.79 208L1044.53 240.025V367.116L1074.79 335.091V208Z" fill="#2797FF"/>
<path d="M1079.67 252.904L1088.45 262.339V331.974L1079.67 322.539V252.904Z" fill="#2797FF"/>
<path d="M1039.64 256.809L1030.86 266.244V335.879L1039.64 326.444V256.809Z" fill="#2797FF"/>
<path d="M1069.91 345.641L1053.31 363.258V389.568L1069.91 371.951V345.641Z" fill="#2797FF"/>
<path d="M1069.91 382.735L1053.31 400.352V409.092L1069.91 391.474V382.735Z" fill="#2797FF"/>
</g>
</g>
<g opacity="0.2">
<mask id="mask0" mask-type="alpha" maskUnits="userSpaceOnUse" x="0" y="0" width="1385" height="488">
<path fill-rule="evenodd" clip-rule="evenodd" d="M1385 0H0V488H1385V0ZM1059.57 177L959.631 187.952V368.658L1059.57 450.797L1159.5 368.658V187.952L1059.57 177Z" fill="#C4C4C4"/>
</mask>
<g mask="url(#mask0)">
<path d="M857.254 299.586L907.703 350.035H1381.92L1331.47 299.586H857.254Z" fill="#46A6FF"/>
<path d="M783.094 299.586L833.543 350.035H883.991L833.543 299.586H783.094Z" fill="#46A6FF"/>
<path d="M739.707 299.586L790.156 350.035H810.335L759.887 299.586H739.707Z" fill="#46A6FF"/>
<path d="M1156 310.999L1182.58 337.737H1432.46L1405.87 310.999H1156Z" fill="#A3D3FF"/>
<path d="M738.195 362.143L765.603 389.89H1154.4L1126.99 362.143H738.195Z" fill="#2C74C9"/>
<path d="M575.246 255.191L607.138 287.478H1004.06L972.169 255.191H575.246Z" fill="#0050AD"/>
<path d="M1050.98 265.281L1072.77 287.479H1508.04L1486.25 265.281H1050.98Z" fill="#6CC1FF"/>
<path d="M1142.29 362.143L1203.6 423.691H1517.63L1456.31 362.143H1142.29Z" fill="#0A51A5"/>
<path opacity="0.3" d="M0.996094 269.999L53.9826 323.999H615.996L563.01 269.999L0.996094 269.999Z" fill="#46A6FF"/>
<path d="M1041.48 20.1829C1065.11 43.8097 1065.11 82.1161 1041.48 105.743C1017.85 129.37 979.547 129.37 955.921 105.743C932.294 82.1161 932.294 43.8097 955.921 20.1829C979.547 -3.44378 1017.85 -3.44378 1041.48 20.1829ZM970.097 91.5667C985.894 107.364 1011.51 107.364 1027.3 91.5667C1043.1 75.7693 1043.1 50.1565 1027.3 34.3591C1011.51 18.5616 985.894 18.5616 970.097 34.3591C954.299 50.1565 954.299 75.7693 970.097 91.5667Z" fill="#6DB0FF"/>
<path d="M1153.91 61.9026C1159.96 67.9558 1159.96 77.7698 1153.91 83.8229C1147.86 89.8761 1138.04 89.8761 1131.99 83.8229C1125.94 77.7698 1125.94 67.9558 1131.99 61.9026C1138.04 55.8495 1147.86 55.8495 1153.91 61.9026ZM1137.92 77.8961C1140.7 80.6759 1145.21 80.6759 1147.98 77.8961C1150.76 75.1163 1150.76 70.6093 1147.98 67.8295C1145.21 65.0497 1140.7 65.0497 1137.92 67.8295C1135.14 70.6093 1135.14 75.1163 1137.92 77.8961Z" fill="#4683FA"/>
<path d="M902.89 150.291C911.677 159.078 911.677 173.324 902.89 182.111C894.103 190.897 879.857 190.897 871.07 182.111C862.283 173.324 862.283 159.078 871.07 150.291C879.857 141.504 894.103 141.504 902.89 150.291ZM883.051 170.13C885.221 172.299 888.739 172.299 890.909 170.13C893.079 167.96 893.079 164.442 890.909 162.272C888.739 160.102 885.221 160.102 883.051 162.272C880.881 164.442 880.881 167.96 883.051 170.13Z" fill="#4886FF"/>
</g>
</g>
<defs>
<filter id="filter0_d" x="929.633" y="151" width="259.872" height="333.797" filterUnits="userSpaceOnUse" color-interpolation-filters="sRGB">
<feFlood flood-opacity="0" result="BackgroundImageFix"/>
<feColorMatrix in="SourceAlpha" type="matrix" values="0 0 0 0 0 0 0 0 0 0 0 0 0 0 0 0 0 0 127 0"/>
<feOffset dy="4"/>
<feGaussianBlur stdDeviation="15"/>
<feColorMatrix type="matrix" values="0 0 0 0 0 0 0 0 0 0.455739 0 0 0 0 1 0 0 0 1 0"/>
<feBlend mode="normal" in2="BackgroundImageFix" result="effect1_dropShadow"/>
<feBlend mode="normal" in="SourceGraphic" in2="effect1_dropShadow" result="shape"/>
</filter>
<filter id="filter1_d" x="955.633" y="177" width="207.872" height="281.797" filterUnits="userSpaceOnUse" color-interpolation-filters="sRGB">
<feFlood flood-opacity="0" result="BackgroundImageFix"/>
<feColorMatrix in="SourceAlpha" type="matrix" values="0 0 0 0 0 0 0 0 0 0 0 0 0 0 0 0 0 0 127 0"/>
<feOffset dy="4"/>
<feGaussianBlur stdDeviation="2"/>
<feColorMatrix type="matrix" values="0 0 0 0 0 0 0 0 0 0 0 0 0 0 0 0 0 0 0.25 0"/>
<feBlend mode="normal" in2="BackgroundImageFix" result="effect1_dropShadow"/>
<feBlend mode="normal" in="SourceGraphic" in2="effect1_dropShadow" result="shape"/>
</filter>
</defs>
</svg>
