<svg width="100" height="100" viewBox="0 0 100 100" fill="none" xmlns="http://www.w3.org/2000/svg">
<mask id="path-1-inside-1" fill="white">
<path d="M51.2119 54.5757C51.0269 54.5356 50.8371 54.5284 50.6497 54.5564C48.7715 54.3378 47.3547 52.7488 47.3515 50.8586C47.3515 49.9527 46.617 49.2183 45.7112 49.2183C44.8053 49.2183 44.0709 49.9527 44.0709 50.8586C44.0757 54.015 46.1869 56.7798 49.2304 57.6152V59.2555C49.2304 60.1613 49.9649 60.8957 50.8707 60.8957C51.7766 60.8957 52.511 60.1613 52.511 59.2555V57.7145C56.0239 56.9792 58.4114 53.7075 58.0422 50.1378C57.6721 46.568 54.6647 43.8553 51.0758 43.8545C49.019 43.8545 47.3515 42.187 47.3515 40.1302C47.3515 38.0735 49.019 36.4059 51.0758 36.4059C53.1325 36.4059 54.8 38.0735 54.8 40.1302C54.8 41.0361 55.5345 41.7705 56.4403 41.7705C57.3462 41.7705 58.0806 41.0361 58.0806 40.1302C58.0758 36.816 55.7539 33.9575 52.511 33.2735V31.7806C52.511 30.8748 51.7766 30.1403 50.8707 30.1403C49.9649 30.1403 49.2304 30.8748 49.2304 31.7806V33.3736C45.8457 34.2979 43.6672 37.5841 44.1334 41.0617C44.5995 44.5393 47.5669 47.1351 51.0758 47.1343C53.1053 47.1343 54.7608 48.7594 54.7976 50.7881C54.8353 52.8168 53.2398 54.502 51.2119 54.5757Z"/>
<path d="M27.29 45.6205C27.29 58.7573 37.939 69.4064 51.0758 69.4064C64.2125 69.4064 74.8616 58.7573 74.8616 45.6205C74.8616 32.4838 64.2125 21.8348 51.0758 21.8348C37.9454 21.8492 27.3052 32.4902 27.29 45.6205ZM51.0758 25.1153C62.4008 25.1153 71.581 34.2955 71.581 45.6205C71.581 56.9456 62.4008 66.1258 51.0758 66.1258C39.7507 66.1258 30.5705 56.9456 30.5705 45.6205C30.5833 34.3011 39.7563 25.1281 51.0758 25.1153Z"/>
<path d="M82.9477 73.4502L70.0985 79.5212C68.3244 76.2214 64.9213 74.1214 61.1762 74.0157L49.3145 73.6897C47.4364 73.636 45.5934 73.1603 43.9235 72.2977L42.7165 71.6722C36.5366 68.4509 29.1705 68.4589 22.997 71.693L23.0723 68.9586C23.0971 68.0528 22.3835 67.2983 21.4777 67.2735L8.47067 66.9155C7.56483 66.8907 6.81116 67.6043 6.78633 68.5101L6.00063 97.0534C5.9758 97.9592 6.68942 98.7137 7.59527 98.7385L20.6022 99.0966H20.6471C21.5361 99.0966 22.2634 98.3893 22.2874 97.5011L22.325 96.1355L25.7041 94.3263C27.0305 93.6126 28.581 93.4428 30.0299 93.8529L50.2084 99.5162C50.2436 99.5267 50.2788 99.5347 50.3149 99.5427C51.7734 99.8478 53.2599 100.001 54.7496 100C57.9052 100.002 61.024 99.3216 63.8921 98.0049C63.9626 97.9729 64.0307 97.9352 64.0955 97.8928L93.3524 78.9686C94.0813 78.4968 94.3168 77.5397 93.8899 76.7836C91.7178 72.9296 86.9002 71.4615 82.9477 73.4502ZM9.32526 95.5044L10.0205 70.2401L19.7477 70.5076L19.0525 95.7727L9.32526 95.5044ZM62.4144 95.0751C58.8511 96.6834 54.8713 97.1271 51.0413 96.3446L30.9173 90.6957C28.6523 90.0557 26.2279 90.3208 24.1559 91.4349L22.4292 92.36L22.8913 75.5622C28.3632 71.9229 35.3809 71.5488 41.2084 74.5851L42.4154 75.2106C44.525 76.2999 46.8517 76.9006 49.2248 76.9695L61.0873 77.2954C64.4191 77.3916 67.2488 79.7639 67.9248 83.0284L50.2556 82.5407C49.3498 82.5159 48.5961 83.2303 48.5705 84.1353C48.5456 85.0412 49.2601 85.7956 50.1651 85.8205L69.6644 86.3571H69.71C70.5982 86.3563 71.3247 85.6491 71.3487 84.7616C71.3687 84.0488 71.3159 83.3352 71.1901 82.6336L84.3693 76.4064C84.3821 76.4008 84.3949 76.3944 84.4077 76.388C86.2771 75.4421 88.5373 75.7585 90.0751 77.1817L62.4144 95.0751Z"/>
<path d="M52.716 17.223V1.64029C52.716 0.734446 51.9816 0 51.0758 0C50.1699 0 49.4355 0.734446 49.4355 1.64029V17.223C49.4355 18.1289 50.1699 18.8633 51.0758 18.8633C51.9816 18.8633 52.716 18.1289 52.716 17.223Z"/>
<path d="M65.0182 17.223V9.84174C65.0182 8.93589 64.2838 8.20145 63.3779 8.20145C62.4721 8.20145 61.7376 8.93589 61.7376 9.84174V17.223C61.7376 18.1289 62.4721 18.8633 63.3779 18.8633C64.2838 18.8633 65.0182 18.1289 65.0182 17.223Z"/>
<path d="M40.4139 17.223V9.84174C40.4139 8.93589 39.6794 8.20145 38.7736 8.20145C37.8677 8.20145 37.1333 8.93589 37.1333 9.84174V17.223C37.1333 18.1289 37.8677 18.8633 38.7736 18.8633C39.6794 18.8633 40.4139 18.1289 40.4139 17.223Z"/>
</mask>
<path d="M51.2119 54.5757C51.0269 54.5356 50.8371 54.5284 50.6497 54.5564C48.7715 54.3378 47.3547 52.7488 47.3515 50.8586C47.3515 49.9527 46.617 49.2183 45.7112 49.2183C44.8053 49.2183 44.0709 49.9527 44.0709 50.8586C44.0757 54.015 46.1869 56.7798 49.2304 57.6152V59.2555C49.2304 60.1613 49.9649 60.8957 50.8707 60.8957C51.7766 60.8957 52.511 60.1613 52.511 59.2555V57.7145C56.0239 56.9792 58.4114 53.7075 58.0422 50.1378C57.6721 46.568 54.6647 43.8553 51.0758 43.8545C49.019 43.8545 47.3515 42.187 47.3515 40.1302C47.3515 38.0735 49.019 36.4059 51.0758 36.4059C53.1325 36.4059 54.8 38.0735 54.8 40.1302C54.8 41.0361 55.5345 41.7705 56.4403 41.7705C57.3462 41.7705 58.0806 41.0361 58.0806 40.1302C58.0758 36.816 55.7539 33.9575 52.511 33.2735V31.7806C52.511 30.8748 51.7766 30.1403 50.8707 30.1403C49.9649 30.1403 49.2304 30.8748 49.2304 31.7806V33.3736C45.8457 34.2979 43.6672 37.5841 44.1334 41.0617C44.5995 44.5393 47.5669 47.1351 51.0758 47.1343C53.1053 47.1343 54.7608 48.7594 54.7976 50.7881C54.8353 52.8168 53.2398 54.502 51.2119 54.5757Z" stroke="#0066E0" stroke-width="2" mask="url(#path-1-inside-1)"/>
<path d="M27.29 45.6205C27.29 58.7573 37.939 69.4064 51.0758 69.4064C64.2125 69.4064 74.8616 58.7573 74.8616 45.6205C74.8616 32.4838 64.2125 21.8348 51.0758 21.8348C37.9454 21.8492 27.3052 32.4902 27.29 45.6205ZM51.0758 25.1153C62.4008 25.1153 71.581 34.2955 71.581 45.6205C71.581 56.9456 62.4008 66.1258 51.0758 66.1258C39.7507 66.1258 30.5705 56.9456 30.5705 45.6205C30.5833 34.3011 39.7563 25.1281 51.0758 25.1153Z" stroke="#0066E0" stroke-width="2" mask="url(#path-1-inside-1)"/>
<path d="M82.9477 73.4502L70.0985 79.5212C68.3244 76.2214 64.9213 74.1214 61.1762 74.0157L49.3145 73.6897C47.4364 73.636 45.5934 73.1603 43.9235 72.2977L42.7165 71.6722C36.5366 68.4509 29.1705 68.4589 22.997 71.693L23.0723 68.9586C23.0971 68.0528 22.3835 67.2983 21.4777 67.2735L8.47067 66.9155C7.56483 66.8907 6.81116 67.6043 6.78633 68.5101L6.00063 97.0534C5.9758 97.9592 6.68942 98.7137 7.59527 98.7385L20.6022 99.0966H20.6471C21.5361 99.0966 22.2634 98.3893 22.2874 97.5011L22.325 96.1355L25.7041 94.3263C27.0305 93.6126 28.581 93.4428 30.0299 93.8529L50.2084 99.5162C50.2436 99.5267 50.2788 99.5347 50.3149 99.5427C51.7734 99.8478 53.2599 100.001 54.7496 100C57.9052 100.002 61.024 99.3216 63.8921 98.0049C63.9626 97.9729 64.0307 97.9352 64.0955 97.8928L93.3524 78.9686C94.0813 78.4968 94.3168 77.5397 93.8899 76.7836C91.7178 72.9296 86.9002 71.4615 82.9477 73.4502ZM9.32526 95.5044L10.0205 70.2401L19.7477 70.5076L19.0525 95.7727L9.32526 95.5044ZM62.4144 95.0751C58.8511 96.6834 54.8713 97.1271 51.0413 96.3446L30.9173 90.6957C28.6523 90.0557 26.2279 90.3208 24.1559 91.4349L22.4292 92.36L22.8913 75.5622C28.3632 71.9229 35.3809 71.5488 41.2084 74.5851L42.4154 75.2106C44.525 76.2999 46.8517 76.9006 49.2248 76.9695L61.0873 77.2954C64.4191 77.3916 67.2488 79.7639 67.9248 83.0284L50.2556 82.5407C49.3498 82.5159 48.5961 83.2303 48.5705 84.1353C48.5456 85.0412 49.2601 85.7956 50.1651 85.8205L69.6644 86.3571H69.71C70.5982 86.3563 71.3247 85.6491 71.3487 84.7616C71.3687 84.0488 71.3159 83.3352 71.1901 82.6336L84.3693 76.4064C84.3821 76.4008 84.3949 76.3944 84.4077 76.388C86.2771 75.4421 88.5373 75.7585 90.0751 77.1817L62.4144 95.0751Z" stroke="#0066E0" stroke-width="2" mask="url(#path-1-inside-1)"/>
<path d="M52.716 17.223V1.64029C52.716 0.734446 51.9816 0 51.0758 0C50.1699 0 49.4355 0.734446 49.4355 1.64029V17.223C49.4355 18.1289 50.1699 18.8633 51.0758 18.8633C51.9816 18.8633 52.716 18.1289 52.716 17.223Z" stroke="#0066E0" stroke-width="2" mask="url(#path-1-inside-1)"/>
<path d="M65.0182 17.223V9.84174C65.0182 8.93589 64.2838 8.20145 63.3779 8.20145C62.4721 8.20145 61.7376 8.93589 61.7376 9.84174V17.223C61.7376 18.1289 62.4721 18.8633 63.3779 18.8633C64.2838 18.8633 65.0182 18.1289 65.0182 17.223Z" stroke="#0066E0" stroke-width="2" mask="url(#path-1-inside-1)"/>
<path d="M40.4139 17.223V9.84174C40.4139 8.93589 39.6794 8.20145 38.7736 8.20145C37.8677 8.20145 37.1333 8.93589 37.1333 9.84174V17.223C37.1333 18.1289 37.8677 18.8633 38.7736 18.8633C39.6794 18.8633 40.4139 18.1289 40.4139 17.223Z" stroke="#0066E0" stroke-width="2" mask="url(#path-1-inside-1)"/>
</svg>
