<svg width="100" height="100" viewBox="0 0 100 100" fill="none" xmlns="http://www.w3.org/2000/svg">
<mask id="path-1-inside-1" fill="white">
<path d="M65.109 68.1917C62.9766 68.1917 61.2418 66.6902 61.2418 64.8447C61.2418 62.999 62.9766 61.4975 65.109 61.4975C67.2414 61.4975 68.9762 62.999 68.9762 64.8447C68.9762 65.8153 69.7633 66.6025 70.734 66.6025C71.7046 66.6025 72.4918 65.8153 72.4918 64.8447C72.4918 61.6235 70.0917 58.9151 66.8668 58.18V57.2657C66.8668 56.2951 66.0797 55.5079 65.109 55.5079C64.1383 55.5079 63.3512 56.2951 63.3512 57.2657V58.18C60.1263 58.9151 57.7262 61.6235 57.7262 64.8447C57.7262 68.6287 61.0381 71.7073 65.109 71.7073C67.2414 71.7073 68.9762 73.2089 68.9762 75.0546C68.9762 76.9003 67.2414 78.4018 65.109 78.4018C62.9766 78.4018 61.2418 76.9003 61.2418 75.0546C61.2418 74.0839 60.4547 73.2968 59.484 73.2968C58.5133 73.2968 57.7262 74.0839 57.7262 75.0546C57.7262 78.2758 60.1263 80.9842 63.3512 81.7193V82.4787C63.3512 83.4493 64.1383 84.2365 65.109 84.2365C66.0797 84.2365 66.8668 83.4493 66.8668 82.4787V81.7193C70.0917 80.9842 72.4918 78.2758 72.4918 75.0546C72.4918 71.2704 69.1799 68.1917 65.109 68.1917Z"/>
<path d="M84.3619 57.7359C82.0657 54.1579 78.8306 51.2948 75.0065 49.4565C74.1313 49.0357 73.081 49.4041 72.6605 50.2791C72.2399 51.1542 72.6082 52.2043 73.4832 52.6249C80.1472 55.8284 84.453 62.6731 84.453 70.0626C84.453 73.2245 83.6736 76.3603 82.1993 79.1313C81.7433 79.9882 82.0683 81.0527 82.9254 81.5087C83.1884 81.6486 83.4711 81.7151 83.7495 81.7151C84.3784 81.7151 84.9868 81.3765 85.3029 80.7826C87.0468 77.5053 87.9686 73.7983 87.9686 70.0626C87.9686 65.6751 86.7214 61.4126 84.3619 57.7359Z"/>
<path d="M67.8721 47.2112L67.7538 47.211C66.7831 47.211 65.996 47.998 65.996 48.9689C65.996 49.9397 66.7831 50.7267 67.7538 50.7267L67.8556 50.7268C67.8584 50.7268 67.861 50.7268 67.864 50.7268C68.831 50.7268 69.6171 49.9453 69.6216 48.9773C69.626 48.0065 68.8428 47.2158 67.8721 47.2112Z"/>
<path d="M56.7511 87.5002C50.0873 84.2966 45.7815 77.4519 45.7815 70.0626C45.7815 66.9006 46.5609 63.7649 48.0352 60.9939C48.4912 60.1369 48.1662 59.0724 47.3091 58.6164C46.4523 58.1604 45.3874 58.4855 44.9316 59.3426C43.1877 62.62 42.2659 66.3269 42.2659 70.0626C42.2659 74.4501 43.5131 78.7124 45.8726 82.3892C48.1688 85.9672 51.4039 88.8303 55.228 90.6688C55.4736 90.787 55.733 90.8427 55.9884 90.8427C56.643 90.8427 57.2713 90.4755 57.574 89.8462C57.9943 88.9711 57.6262 87.9209 56.7511 87.5002Z"/>
<path d="M62.4807 89.3985L62.3789 89.3981C61.4037 89.3964 60.6176 90.1766 60.6132 91.1477C60.6086 92.1185 61.3923 92.9092 62.3629 92.9137L62.4807 92.9141C63.4514 92.9141 64.2385 92.1269 64.2385 91.1563C64.2385 90.1856 63.4514 89.3985 62.4807 89.3985Z"/>
<path d="M73.0991 41.2638C72.8852 40.7541 72.6231 40.2737 72.3181 39.8281H76.8944C81.3529 39.8281 84.9803 36.2007 84.9803 31.7421C84.9803 27.2836 81.3529 23.6562 76.8944 23.6562H62.8179C63.7128 22.3551 64.2382 20.781 64.2382 19.0859C64.2382 14.6274 60.6108 11 56.1522 11H13.0859C8.62742 11 5 14.6274 5 19.0859C5 23.5444 8.62742 27.1718 13.0859 27.1718H27.1625C26.2676 28.473 25.7421 30.0471 25.7421 31.7421C25.7421 33.4372 26.2674 35.0113 27.1625 36.3125H22.5781C18.1196 36.3125 14.4922 39.9399 14.4922 44.3984C14.4922 46.959 15.6899 49.244 17.5534 50.7265C15.6899 52.209 14.4922 54.494 14.4922 57.0546C14.4922 59.6152 15.6899 61.9002 17.5534 63.3827C15.6899 64.8653 14.4922 67.1502 14.4922 69.7108C14.4922 72.2714 15.6899 74.5564 17.5534 76.0389C15.6899 77.5215 14.4922 79.8065 14.4922 82.3671C14.4922 86.8256 18.1196 90.453 22.5781 90.453H43.2939C48.7512 96.2901 56.5147 99.9453 65.1173 99.9453C81.5946 99.9453 95 86.5399 95 70.0626C95 56.3487 85.7135 44.7645 73.0991 41.2638ZM76.8944 27.1718C79.4146 27.1718 81.4647 29.2222 81.4647 31.7421C81.4647 34.2621 79.4146 36.3125 76.8944 36.3125H33.8281C31.3079 36.3125 29.2578 34.2621 29.2578 31.7421C29.2578 29.2222 31.3079 27.1718 33.8281 27.1718H76.8944ZM13.0859 23.6562C10.5658 23.6562 8.51562 21.6059 8.51562 19.0859C8.51562 16.5659 10.5658 14.5156 13.0859 14.5156H56.1522C58.6724 14.5156 60.7226 16.5659 60.7226 19.0859C60.7226 21.6059 58.6724 23.6562 56.1522 23.6562H13.0859ZM22.5781 39.8281H65.6444C66.3525 39.8281 67.0305 39.9926 67.6387 40.2872C66.8072 40.2174 65.9666 40.1798 65.1173 40.1798C56.8652 40.1798 49.384 43.5423 43.971 48.9687H22.5781C20.0581 48.9687 18.0078 46.9184 18.0078 44.3984C18.0078 41.8784 20.0581 39.8281 22.5781 39.8281ZM22.5781 52.4843H40.9674C38.9719 55.2182 37.4291 58.3018 36.4493 61.6249H22.5781C20.0579 61.6249 18.0078 59.5748 18.0078 57.0546C18.0078 54.5346 20.0579 52.4843 22.5781 52.4843ZM22.5781 65.1405H35.6421C35.3755 66.7424 35.2345 68.3861 35.2345 70.0626C35.2345 71.4945 35.338 72.9025 35.5337 74.2811H22.5781C20.0579 74.2811 18.0078 72.231 18.0078 69.7108C18.0078 67.1907 20.0579 65.1405 22.5781 65.1405ZM22.5781 86.9374C20.0579 86.9374 18.0078 84.8872 18.0078 82.3671C18.0078 79.8469 20.0579 77.7968 22.5781 77.7968H36.2514C37.1384 81.1037 38.5793 84.1857 40.4689 86.9374H22.5781ZM65.1173 96.4297C50.5784 96.4297 38.7501 84.6014 38.7501 70.0626C38.7501 55.5237 50.5784 43.6954 65.1173 43.6954C79.6561 43.6954 91.4844 55.5237 91.4844 70.0626C91.4844 84.6014 79.6561 96.4297 65.1173 96.4297Z"/>
</mask>
<path d="M65.109 68.1917C62.9766 68.1917 61.2418 66.6902 61.2418 64.8447C61.2418 62.999 62.9766 61.4975 65.109 61.4975C67.2414 61.4975 68.9762 62.999 68.9762 64.8447C68.9762 65.8153 69.7633 66.6025 70.734 66.6025C71.7046 66.6025 72.4918 65.8153 72.4918 64.8447C72.4918 61.6235 70.0917 58.9151 66.8668 58.18V57.2657C66.8668 56.2951 66.0797 55.5079 65.109 55.5079C64.1383 55.5079 63.3512 56.2951 63.3512 57.2657V58.18C60.1263 58.9151 57.7262 61.6235 57.7262 64.8447C57.7262 68.6287 61.0381 71.7073 65.109 71.7073C67.2414 71.7073 68.9762 73.2089 68.9762 75.0546C68.9762 76.9003 67.2414 78.4018 65.109 78.4018C62.9766 78.4018 61.2418 76.9003 61.2418 75.0546C61.2418 74.0839 60.4547 73.2968 59.484 73.2968C58.5133 73.2968 57.7262 74.0839 57.7262 75.0546C57.7262 78.2758 60.1263 80.9842 63.3512 81.7193V82.4787C63.3512 83.4493 64.1383 84.2365 65.109 84.2365C66.0797 84.2365 66.8668 83.4493 66.8668 82.4787V81.7193C70.0917 80.9842 72.4918 78.2758 72.4918 75.0546C72.4918 71.2704 69.1799 68.1917 65.109 68.1917Z" stroke="#0066E0" stroke-width="2" mask="url(#path-1-inside-1)"/>
<path d="M84.3619 57.7359C82.0657 54.1579 78.8306 51.2948 75.0065 49.4565C74.1313 49.0357 73.081 49.4041 72.6605 50.2791C72.2399 51.1542 72.6082 52.2043 73.4832 52.6249C80.1472 55.8284 84.453 62.6731 84.453 70.0626C84.453 73.2245 83.6736 76.3603 82.1993 79.1313C81.7433 79.9882 82.0683 81.0527 82.9254 81.5087C83.1884 81.6486 83.4711 81.7151 83.7495 81.7151C84.3784 81.7151 84.9868 81.3765 85.3029 80.7826C87.0468 77.5053 87.9686 73.7983 87.9686 70.0626C87.9686 65.6751 86.7214 61.4126 84.3619 57.7359Z" stroke="#0066E0" stroke-width="2" mask="url(#path-1-inside-1)"/>
<path d="M67.8721 47.2112L67.7538 47.211C66.7831 47.211 65.996 47.998 65.996 48.9689C65.996 49.9397 66.7831 50.7267 67.7538 50.7267L67.8556 50.7268C67.8584 50.7268 67.861 50.7268 67.864 50.7268C68.831 50.7268 69.6171 49.9453 69.6216 48.9773C69.626 48.0065 68.8428 47.2158 67.8721 47.2112Z" stroke="#0066E0" stroke-width="2" mask="url(#path-1-inside-1)"/>
<path d="M56.7511 87.5002C50.0873 84.2966 45.7815 77.4519 45.7815 70.0626C45.7815 66.9006 46.5609 63.7649 48.0352 60.9939C48.4912 60.1369 48.1662 59.0724 47.3091 58.6164C46.4523 58.1604 45.3874 58.4855 44.9316 59.3426C43.1877 62.62 42.2659 66.3269 42.2659 70.0626C42.2659 74.4501 43.5131 78.7124 45.8726 82.3892C48.1688 85.9672 51.4039 88.8303 55.228 90.6688C55.4736 90.787 55.733 90.8427 55.9884 90.8427C56.643 90.8427 57.2713 90.4755 57.574 89.8462C57.9943 88.9711 57.6262 87.9209 56.7511 87.5002Z" stroke="#0066E0" stroke-width="2" mask="url(#path-1-inside-1)"/>
<path d="M62.4807 89.3985L62.3789 89.3981C61.4037 89.3964 60.6176 90.1766 60.6132 91.1477C60.6086 92.1185 61.3923 92.9092 62.3629 92.9137L62.4807 92.9141C63.4514 92.9141 64.2385 92.1269 64.2385 91.1563C64.2385 90.1856 63.4514 89.3985 62.4807 89.3985Z" stroke="#0066E0" stroke-width="2" mask="url(#path-1-inside-1)"/>
<path d="M73.0991 41.2638C72.8852 40.7541 72.6231 40.2737 72.3181 39.8281H76.8944C81.3529 39.8281 84.9803 36.2007 84.9803 31.7421C84.9803 27.2836 81.3529 23.6562 76.8944 23.6562H62.8179C63.7128 22.3551 64.2382 20.781 64.2382 19.0859C64.2382 14.6274 60.6108 11 56.1522 11H13.0859C8.62742 11 5 14.6274 5 19.0859C5 23.5444 8.62742 27.1718 13.0859 27.1718H27.1625C26.2676 28.473 25.7421 30.0471 25.7421 31.7421C25.7421 33.4372 26.2674 35.0113 27.1625 36.3125H22.5781C18.1196 36.3125 14.4922 39.9399 14.4922 44.3984C14.4922 46.959 15.6899 49.244 17.5534 50.7265C15.6899 52.209 14.4922 54.494 14.4922 57.0546C14.4922 59.6152 15.6899 61.9002 17.5534 63.3827C15.6899 64.8653 14.4922 67.1502 14.4922 69.7108C14.4922 72.2714 15.6899 74.5564 17.5534 76.0389C15.6899 77.5215 14.4922 79.8065 14.4922 82.3671C14.4922 86.8256 18.1196 90.453 22.5781 90.453H43.2939C48.7512 96.2901 56.5147 99.9453 65.1173 99.9453C81.5946 99.9453 95 86.5399 95 70.0626C95 56.3487 85.7135 44.7645 73.0991 41.2638ZM76.8944 27.1718C79.4146 27.1718 81.4647 29.2222 81.4647 31.7421C81.4647 34.2621 79.4146 36.3125 76.8944 36.3125H33.8281C31.3079 36.3125 29.2578 34.2621 29.2578 31.7421C29.2578 29.2222 31.3079 27.1718 33.8281 27.1718H76.8944ZM13.0859 23.6562C10.5658 23.6562 8.51562 21.6059 8.51562 19.0859C8.51562 16.5659 10.5658 14.5156 13.0859 14.5156H56.1522C58.6724 14.5156 60.7226 16.5659 60.7226 19.0859C60.7226 21.6059 58.6724 23.6562 56.1522 23.6562H13.0859ZM22.5781 39.8281H65.6444C66.3525 39.8281 67.0305 39.9926 67.6387 40.2872C66.8072 40.2174 65.9666 40.1798 65.1173 40.1798C56.8652 40.1798 49.384 43.5423 43.971 48.9687H22.5781C20.0581 48.9687 18.0078 46.9184 18.0078 44.3984C18.0078 41.8784 20.0581 39.8281 22.5781 39.8281ZM22.5781 52.4843H40.9674C38.9719 55.2182 37.4291 58.3018 36.4493 61.6249H22.5781C20.0579 61.6249 18.0078 59.5748 18.0078 57.0546C18.0078 54.5346 20.0579 52.4843 22.5781 52.4843ZM22.5781 65.1405H35.6421C35.3755 66.7424 35.2345 68.3861 35.2345 70.0626C35.2345 71.4945 35.338 72.9025 35.5337 74.2811H22.5781C20.0579 74.2811 18.0078 72.231 18.0078 69.7108C18.0078 67.1907 20.0579 65.1405 22.5781 65.1405ZM22.5781 86.9374C20.0579 86.9374 18.0078 84.8872 18.0078 82.3671C18.0078 79.8469 20.0579 77.7968 22.5781 77.7968H36.2514C37.1384 81.1037 38.5793 84.1857 40.4689 86.9374H22.5781ZM65.1173 96.4297C50.5784 96.4297 38.7501 84.6014 38.7501 70.0626C38.7501 55.5237 50.5784 43.6954 65.1173 43.6954C79.6561 43.6954 91.4844 55.5237 91.4844 70.0626C91.4844 84.6014 79.6561 96.4297 65.1173 96.4297Z" stroke="#0066E0" stroke-width="2" mask="url(#path-1-inside-1)"/>
</svg>
